<svg id="svg" version="1.1" xmlns="http://www.w3.org/2000/svg" xmlns:xlink="http://www.w3.org/1999/xlink" width="400" height="400" viewBox="0, 0, 400,400"><g id="svgg"><path id="path0" d="M236.945 83.478 C 237.377 83.911,238.400 83.971,238.400 83.565 C 238.400 83.364,238.010 83.200,237.533 83.200 C 237.057 83.200,236.792 83.325,236.945 83.478 M256.589 83.582 C 256.731 83.812,257.317 84.000,257.890 84.000 C 259.160 84.000,258.766 83.489,257.350 83.300 C 256.715 83.215,256.428 83.321,256.589 83.582 M227.776 85.318 C 227.646 85.657,227.078 85.778,226.139 85.669 C 225.044 85.541,224.746 85.632,224.892 86.050 C 225.192 86.910,230.000 86.080,230.000 85.169 C 230.000 84.599,228.001 84.733,227.776 85.318 M269.600 86.000 C 269.600 86.220,269.870 86.400,270.200 86.400 C 270.530 86.400,270.800 86.220,270.800 86.000 C 270.800 85.780,270.530 85.600,270.200 85.600 C 269.870 85.600,269.600 85.780,269.600 86.000 M219.901 87.937 C 219.733 88.577,219.827 88.617,220.620 88.243 C 221.559 87.800,221.561 87.200,220.623 87.200 C 220.332 87.200,220.007 87.532,219.901 87.937 M216.000 89.200 C 216.000 89.420,216.259 89.600,216.576 89.600 C 216.893 89.600,217.264 89.420,217.400 89.200 C 217.536 88.980,217.277 88.800,216.824 88.800 C 216.371 88.800,216.000 88.980,216.000 89.200 M212.200 90.800 C 212.055 91.034,212.470 91.200,213.200 91.200 C 213.930 91.200,214.345 91.034,214.200 90.800 C 214.064 90.580,213.614 90.400,213.200 90.400 C 212.786 90.400,212.336 90.580,212.200 90.800 M208.500 92.682 C 207.385 92.897,207.309 93.600,208.400 93.600 C 208.840 93.600,209.200 93.433,209.200 93.228 C 209.200 93.023,209.605 92.778,210.100 92.682 C 210.827 92.542,210.846 92.509,210.200 92.509 C 209.760 92.509,208.995 92.587,208.500 92.682 M206.000 94.249 C 206.000 94.780,206.109 94.808,206.600 94.400 C 206.930 94.126,207.200 93.834,207.200 93.751 C 207.200 93.668,206.930 93.600,206.600 93.600 C 206.270 93.600,206.000 93.892,206.000 94.249 M290.000 94.753 C 290.000 94.948,290.370 95.204,290.823 95.322 C 291.498 95.498,291.561 95.435,291.174 94.969 C 290.646 94.332,290.000 94.214,290.000 94.753 M204.000 95.195 C 203.670 95.386,203.074 95.644,202.675 95.768 C 201.853 96.024,202.133 96.800,203.047 96.800 C 203.377 96.800,203.536 96.620,203.400 96.400 C 203.183 96.049,203.675 95.836,204.462 95.940 C 204.606 95.959,204.826 95.710,204.950 95.387 C 205.200 94.734,204.900 94.673,204.000 95.195 M293.600 96.809 C 293.600 97.038,293.915 97.342,294.300 97.485 C 294.685 97.628,295.366 98.162,295.813 98.672 C 296.260 99.183,296.808 99.600,297.031 99.600 C 297.254 99.600,298.373 100.466,299.518 101.524 C 301.085 102.973,301.600 103.269,301.600 102.724 C 301.600 102.326,301.465 101.998,301.300 101.996 C 301.135 101.993,300.249 101.273,299.332 100.396 C 298.258 99.369,297.439 98.887,297.032 99.043 C 296.648 99.190,296.398 99.072,296.395 98.743 C 296.392 98.444,295.762 97.793,294.995 97.296 C 294.228 96.799,293.600 96.580,293.600 96.809 M254.400 97.226 C 231.269 99.383,211.333 109.680,197.242 126.749 C 195.403 128.977,193.860 130.800,193.813 130.800 C 193.766 130.800,191.944 130.402,189.764 129.916 C 157.075 122.626,121.200 149.767,121.200 181.789 C 121.200 185.507,120.859 186.000,118.286 186.000 C 95.680 186.001,74.557 209.699,76.587 232.782 C 77.347 241.434,81.087 252.800,83.173 252.800 C 83.531 252.800,84.083 253.160,84.400 253.600 C 84.717 254.040,85.297 254.400,85.688 254.400 C 86.080 254.400,86.400 254.580,86.400 254.800 C 86.400 255.020,86.760 255.200,87.200 255.200 C 87.640 255.200,88.000 255.380,88.000 255.600 C 88.000 255.820,88.360 256.000,88.800 256.000 C 89.240 256.000,89.600 256.180,89.600 256.400 C 89.600 256.620,89.960 256.800,90.400 256.800 C 90.840 256.800,91.200 256.980,91.200 257.200 C 91.200 257.420,91.610 257.600,92.112 257.600 C 92.613 257.600,93.283 257.960,93.600 258.400 C 94.036 259.005,94.635 259.200,96.055 259.200 C 97.202 259.200,97.998 259.395,98.100 259.700 C 98.231 260.095,107.279 260.225,141.133 260.317 C 168.101 260.390,184.000 260.576,184.000 260.817 C 184.000 261.028,184.619 261.200,185.376 261.200 C 186.133 261.200,186.863 261.378,186.997 261.595 C 187.140 261.827,186.943 261.894,186.521 261.758 C 185.956 261.575,185.922 261.611,186.364 261.925 C 186.674 262.146,187.145 262.242,187.411 262.140 C 187.677 262.038,187.999 262.355,188.127 262.843 C 188.327 263.606,188.450 263.657,188.998 263.202 C 189.349 262.910,189.540 262.421,189.423 262.115 C 189.305 261.809,189.372 261.659,189.570 261.782 C 189.769 261.905,190.023 261.779,190.134 261.502 C 190.246 261.226,190.351 261.369,190.368 261.820 C 190.386 262.271,190.184 262.856,189.920 263.120 C 189.547 263.493,189.897 263.600,191.496 263.600 C 192.627 263.600,193.669 263.411,193.812 263.181 C 193.981 262.907,194.234 262.896,194.539 263.149 C 195.327 263.803,207.304 263.648,207.050 262.987 C 206.915 262.633,207.045 262.519,207.420 262.663 C 207.739 262.786,208.000 263.026,208.000 263.198 C 208.000 263.686,220.033 263.670,220.622 263.182 C 220.975 262.888,221.207 262.888,221.388 263.181 C 221.719 263.716,225.200 263.734,225.200 263.200 C 225.200 262.802,224.655 262.646,223.700 262.770 C 223.425 262.806,223.200 262.677,223.200 262.484 C 223.200 261.796,223.736 261.615,224.328 262.103 C 224.808 262.499,224.964 262.498,225.099 262.098 C 225.192 261.821,225.425 261.692,225.617 261.810 C 225.808 261.929,225.870 262.274,225.754 262.577 C 225.441 263.391,226.392 263.525,232.731 263.556 C 237.100 263.578,238.423 263.468,238.297 263.092 C 238.207 262.822,237.968 262.599,237.767 262.597 C 237.084 262.592,235.446 261.221,235.754 260.913 C 235.922 260.744,236.235 260.920,236.450 261.303 C 236.664 261.686,237.179 262.000,237.593 262.000 C 238.007 262.000,238.460 262.360,238.600 262.800 C 238.813 263.471,239.205 263.600,241.027 263.600 C 243.185 263.600,243.496 263.357,243.237 261.870 C 243.206 261.689,243.372 261.659,243.606 261.804 C 243.841 261.949,243.923 262.412,243.789 262.834 C 243.569 263.527,243.761 263.600,245.822 263.600 C 247.778 263.600,248.029 263.517,247.611 263.013 C 247.343 262.690,246.938 262.465,246.712 262.513 C 246.485 262.561,246.246 262.370,246.180 262.090 C 246.114 261.810,246.152 261.766,246.264 261.992 C 246.376 262.219,246.609 262.318,246.781 262.212 C 246.953 262.106,247.415 262.375,247.809 262.809 C 248.429 263.495,249.048 263.600,252.462 263.600 C 256.382 263.600,256.852 263.440,255.900 262.430 C 255.490 261.995,255.593 261.934,256.469 262.089 C 257.270 262.230,257.587 262.092,257.732 261.539 C 257.936 260.758,258.800 260.503,258.800 261.224 C 258.800 261.457,258.608 261.529,258.373 261.383 C 258.117 261.225,257.997 261.416,258.073 261.860 C 258.159 262.361,257.974 262.582,257.500 262.544 C 257.115 262.514,256.800 262.739,256.800 263.044 C 256.800 263.764,260.427 263.813,261.137 263.103 C 261.514 262.726,261.703 262.720,261.924 263.077 C 262.273 263.642,269.041 263.694,270.100 263.139 C 270.552 262.902,270.800 262.918,270.800 263.186 C 270.800 263.414,271.610 263.600,272.600 263.600 C 274.133 263.600,274.400 263.481,274.400 262.800 C 274.400 262.213,274.667 262.000,275.400 262.000 C 275.950 262.000,276.400 262.163,276.400 262.363 C 276.400 262.562,276.040 262.631,275.600 262.516 C 275.044 262.370,274.800 262.504,274.800 262.953 C 274.800 263.462,275.223 263.600,276.776 263.600 C 278.681 263.600,279.742 263.085,278.702 262.666 C 278.389 262.540,278.370 262.451,278.651 262.432 C 278.899 262.414,279.326 262.670,279.600 263.000 C 280.332 263.882,283.434 263.808,283.784 262.900 C 284.041 262.233,284.073 262.233,284.447 262.900 C 284.777 263.489,285.434 263.600,288.584 263.600 C 291.925 263.600,292.318 263.525,292.221 262.900 C 292.076 261.959,292.737 261.596,293.837 262.014 C 294.334 262.203,295.204 262.274,295.770 262.171 C 296.367 262.063,296.800 262.170,296.800 262.425 C 296.800 262.713,296.104 262.801,294.800 262.679 C 293.271 262.535,292.800 262.622,292.800 263.045 C 292.800 263.486,293.749 263.600,297.424 263.600 C 300.404 263.600,301.959 263.458,301.800 263.200 C 301.664 262.980,301.833 262.800,302.176 262.800 C 302.519 262.800,302.800 262.980,302.800 263.200 C 302.800 263.766,305.741 263.699,306.320 263.120 C 306.655 262.785,306.800 262.775,306.800 263.088 C 306.800 263.838,319.171 263.740,319.460 262.988 C 319.584 262.665,319.841 262.400,320.030 262.400 C 320.220 262.400,320.276 262.658,320.155 262.972 C 319.900 263.638,327.814 263.825,328.222 263.164 C 328.346 262.964,329.397 262.800,330.557 262.800 C 332.887 262.800,333.417 262.543,332.748 261.737 C 332.408 261.327,332.448 261.200,332.918 261.200 C 333.256 261.200,333.624 261.425,333.735 261.700 C 333.846 261.975,333.951 261.816,333.968 261.347 C 334.008 260.267,335.388 259.857,336.085 260.718 C 336.477 261.202,336.481 261.282,336.100 261.053 C 335.825 260.888,335.600 260.938,335.600 261.164 C 335.600 261.390,335.330 261.471,335.000 261.345 C 334.670 261.218,334.400 261.275,334.400 261.472 C 334.400 261.916,335.874 262.076,337.179 261.772 C 337.956 261.592,338.038 261.469,337.579 261.179 C 337.104 260.878,337.130 260.811,337.724 260.806 C 338.122 260.803,338.355 260.650,338.241 260.467 C 338.128 260.283,338.294 260.133,338.611 260.133 C 339.046 260.133,339.079 260.264,338.745 260.667 C 338.095 261.449,340.274 261.383,341.061 260.596 C 341.393 260.264,341.858 260.112,342.094 260.258 C 342.349 260.415,342.407 260.336,342.238 260.062 C 342.081 259.808,342.133 259.600,342.353 259.600 C 342.574 259.600,342.690 259.268,342.612 258.862 C 342.498 258.272,342.664 258.161,343.444 258.310 C 344.219 258.459,344.324 258.609,343.960 259.048 C 343.590 259.494,343.711 259.600,344.594 259.600 C 345.303 259.600,345.618 259.425,345.494 259.100 C 345.372 258.782,345.719 258.570,346.447 258.516 C 348.125 258.394,349.394 257.634,348.843 257.083 C 348.247 256.487,348.281 255.894,348.900 256.100 C 349.175 256.192,349.400 256.477,349.400 256.733 C 349.400 257.441,349.695 257.418,350.924 256.613 C 351.764 256.063,351.915 255.793,351.524 255.544 C 351.134 255.297,351.185 255.211,351.724 255.206 C 352.122 255.203,352.344 255.032,352.217 254.828 C 352.091 254.623,352.160 254.348,352.373 254.217 C 352.587 254.084,352.689 254.338,352.602 254.789 C 352.401 255.832,353.256 255.843,354.191 254.809 C 354.585 254.375,355.063 254.115,355.253 254.233 C 355.655 254.481,355.726 253.859,355.340 253.473 C 355.196 253.330,354.864 253.507,354.601 253.867 C 354.279 254.307,354.033 254.377,353.850 254.081 C 353.700 253.838,353.932 253.451,354.365 253.219 C 354.887 252.940,355.235 252.933,355.399 253.199 C 355.882 253.980,356.882 253.580,358.400 252.000 C 359.246 251.120,360.122 250.400,360.348 250.400 C 360.574 250.400,361.919 249.251,363.337 247.848 C 364.755 246.444,366.159 245.208,366.457 245.102 C 366.756 244.996,366.862 244.762,366.693 244.581 C 366.525 244.401,366.174 244.466,365.913 244.727 C 365.169 245.471,364.744 245.280,365.270 244.437 C 365.542 244.002,366.071 243.737,366.504 243.820 C 367.290 243.971,370.153 241.487,369.707 241.040 C 369.308 240.641,368.735 240.771,369.000 241.200 C 369.136 241.420,368.967 241.600,368.624 241.600 C 368.281 241.600,368.000 241.420,368.000 241.200 C 368.000 240.805,368.266 240.721,369.765 240.641 C 370.185 240.618,370.602 240.385,370.691 240.122 C 370.799 239.802,370.502 239.707,369.794 239.835 C 369.074 239.966,368.825 239.883,369.015 239.576 C 369.168 239.328,369.718 239.206,370.237 239.305 C 371.193 239.488,371.719 239.058,372.714 237.284 C 373.324 236.194,373.042 235.549,372.087 235.855 C 371.518 236.038,371.501 236.004,371.987 235.661 C 372.362 235.395,372.739 235.383,373.034 235.628 C 373.626 236.120,374.577 235.038,374.265 234.225 C 374.115 233.833,374.231 233.714,374.620 233.863 C 375.010 234.013,375.200 233.817,375.200 233.266 C 375.200 232.816,375.396 232.326,375.635 232.178 C 375.874 232.031,375.984 231.583,375.880 231.185 C 375.743 230.659,375.860 230.525,376.304 230.695 C 376.784 230.880,376.875 230.706,376.722 229.902 C 376.578 229.153,376.671 228.929,377.062 229.079 C 377.432 229.221,377.600 228.944,377.600 228.194 C 377.600 227.219,377.528 227.161,376.925 227.651 C 376.331 228.134,376.283 228.112,376.525 227.467 C 376.676 227.064,376.800 226.676,376.800 226.605 C 376.800 226.533,377.160 226.569,377.600 226.684 C 378.214 226.845,378.400 226.696,378.400 226.047 C 378.400 225.581,378.580 225.200,378.800 225.200 C 379.020 225.200,379.200 224.690,379.200 224.067 C 379.200 223.443,379.335 222.798,379.500 222.633 C 380.003 222.131,379.883 220.470,379.358 220.671 C 379.096 220.772,378.763 220.664,378.620 220.432 C 378.461 220.175,378.601 220.102,378.979 220.247 C 379.344 220.387,379.600 220.271,379.600 219.966 C 379.600 219.652,379.843 219.754,380.215 220.224 C 380.786 220.945,380.821 220.855,380.715 218.950 C 380.630 217.440,380.732 216.951,381.100 217.093 C 381.463 217.233,381.600 216.678,381.600 215.066 C 381.600 213.846,381.780 212.736,382.000 212.600 C 382.578 212.243,382.495 209.305,381.900 209.065 C 381.500 208.904,381.500 208.857,381.900 208.832 C 382.530 208.792,382.627 196.587,382.000 196.200 C 381.780 196.064,381.600 195.164,381.600 194.200 C 381.600 193.236,381.420 192.336,381.200 192.200 C 380.980 192.064,380.800 192.323,380.800 192.776 C 380.800 193.255,380.539 193.600,380.177 193.600 C 379.614 193.600,379.614 193.516,380.177 192.711 C 381.017 191.512,380.961 191.065,380.000 191.316 C 379.561 191.431,379.082 191.317,378.936 191.062 C 378.791 190.808,378.814 190.729,378.988 190.886 C 379.440 191.294,380.751 190.508,380.626 189.905 C 380.568 189.627,380.386 189.040,380.222 188.600 C 380.058 188.160,379.848 187.555,379.757 187.255 C 379.634 186.851,379.454 186.823,379.062 187.149 C 378.664 187.479,378.533 187.440,378.533 186.994 C 378.533 186.667,378.683 186.400,378.867 186.400 C 379.050 186.400,379.200 185.938,379.200 185.373 C 379.200 184.509,379.058 184.381,378.300 184.569 C 377.805 184.692,377.625 184.689,377.900 184.563 C 378.492 184.291,378.580 182.400,378.000 182.400 C 377.780 182.400,377.600 182.064,377.600 181.652 C 377.600 181.046,377.354 180.932,376.300 181.049 C 375.392 181.149,375.175 181.081,375.581 180.822 C 375.900 180.619,376.305 180.542,376.481 180.650 C 377.144 181.060,376.767 179.167,376.041 178.441 C 375.623 178.023,375.159 177.124,375.009 176.443 C 374.860 175.762,374.506 175.069,374.223 174.902 C 373.940 174.736,373.391 173.979,373.002 173.220 C 372.614 172.460,372.048 171.591,371.744 171.287 C 371.441 170.984,371.312 170.542,371.458 170.306 C 371.615 170.051,371.536 169.993,371.262 170.162 C 371.008 170.319,370.800 170.302,370.799 170.124 C 370.799 169.946,370.259 169.170,369.600 168.400 C 368.941 167.630,368.401 167.189,368.401 167.420 C 368.400 167.651,368.616 168.056,368.880 168.320 C 369.144 168.584,369.212 168.800,369.031 168.800 C 368.850 168.800,368.949 169.115,369.251 169.500 C 369.749 170.134,369.734 170.149,369.100 169.651 C 368.715 169.349,368.400 169.236,368.400 169.400 C 368.400 169.564,368.141 169.483,367.824 169.220 C 367.507 168.957,367.357 168.455,367.492 168.105 C 367.635 167.732,367.570 167.571,367.335 167.717 C 367.114 167.853,366.933 167.695,366.933 167.365 C 366.933 167.035,367.168 166.855,367.454 166.965 C 368.267 167.277,368.520 166.463,367.826 165.768 C 367.481 165.424,367.200 165.275,367.200 165.436 C 367.200 165.597,366.675 165.115,366.034 164.364 C 363.206 161.054,363.285 161.122,362.933 161.707 C 362.750 162.011,362.276 162.380,361.879 162.526 C 361.478 162.673,361.259 162.628,361.386 162.423 C 361.511 162.221,361.411 161.930,361.164 161.778 C 360.844 161.580,360.868 161.405,361.247 161.171 C 361.560 160.977,361.898 161.034,362.068 161.310 C 362.227 161.567,362.501 161.622,362.678 161.434 C 362.964 161.129,362.659 160.887,361.715 160.670 C 361.547 160.632,360.942 160.076,360.370 159.436 C 359.222 158.151,358.094 158.280,358.808 159.615 C 359.139 160.234,359.101 160.337,358.612 160.149 C 358.278 160.021,358.094 159.771,358.204 159.593 C 358.314 159.415,357.908 158.881,357.302 158.405 C 356.696 157.930,356.425 157.655,356.700 157.794 C 357.001 157.947,357.200 157.782,357.200 157.381 C 357.200 156.963,356.984 156.797,356.620 156.937 C 356.233 157.085,356.115 156.967,356.263 156.580 C 356.391 156.245,356.251 156.000,355.931 156.000 C 355.626 156.000,355.117 155.640,354.800 155.200 C 354.122 154.259,353.200 154.144,353.200 155.000 C 353.200 155.330,353.335 155.555,353.500 155.500 C 353.665 155.445,353.830 155.560,353.866 155.755 C 353.902 155.951,354.172 156.263,354.466 156.449 C 354.845 156.689,354.724 156.790,354.051 156.794 C 353.212 156.799,353.166 156.723,353.651 156.135 C 354.146 155.535,354.116 155.514,353.350 155.922 C 352.640 156.300,352.378 156.230,351.750 155.494 C 351.013 154.629,351.013 154.624,351.775 155.207 C 352.480 155.747,352.525 155.735,352.279 155.079 C 352.117 154.646,352.167 154.456,352.405 154.603 C 352.622 154.737,352.800 154.567,352.800 154.224 C 352.800 153.797,352.420 153.600,351.600 153.600 C 350.940 153.600,350.400 153.401,350.400 153.157 C 350.400 152.914,350.139 152.814,349.820 152.937 C 349.433 153.085,349.315 152.967,349.463 152.580 C 349.603 152.216,349.437 152.000,349.019 152.000 C 348.653 152.000,348.457 152.169,348.585 152.376 C 348.713 152.582,348.453 152.724,348.009 152.691 C 347.206 152.630,346.833 152.000,347.600 152.000 C 347.820 152.000,348.000 151.820,348.000 151.600 C 348.000 151.051,346.266 151.094,345.702 151.658 C 345.359 152.001,345.301 151.901,345.469 151.258 C 345.652 150.558,345.519 150.401,344.747 150.406 C 344.210 150.410,343.990 150.539,344.239 150.706 C 344.842 151.109,344.783 152.267,344.160 152.267 C 343.819 152.267,343.709 151.832,343.824 150.933 C 343.967 149.823,343.866 149.600,343.221 149.600 C 342.795 149.600,342.331 149.411,342.188 149.181 C 342.018 148.905,341.767 148.895,341.457 149.152 C 341.137 149.418,340.667 149.299,339.993 148.781 C 339.447 148.361,338.426 148.014,337.724 148.009 C 337.022 148.004,336.344 147.833,336.218 147.629 C 336.091 147.424,334.974 147.257,333.735 147.257 C 332.496 147.257,331.374 147.096,331.241 146.899 C 331.109 146.702,330.512 146.571,329.915 146.608 C 329.318 146.645,328.924 146.523,329.039 146.337 C 329.153 146.152,329.124 145.801,328.974 145.557 C 328.777 145.239,328.624 145.237,328.430 145.551 C 328.282 145.791,328.202 145.090,328.252 143.994 C 328.303 142.897,328.176 142.000,327.972 142.000 C 327.767 142.000,327.600 141.460,327.600 140.800 C 327.600 140.140,327.432 139.600,327.227 139.600 C 327.021 139.600,326.796 139.144,326.727 138.588 C 326.657 138.031,326.420 137.626,326.200 137.688 C 325.980 137.749,325.849 137.948,325.910 138.130 C 325.970 138.311,325.820 138.336,325.575 138.185 C 325.255 137.987,325.252 137.788,325.565 137.475 C 326.343 136.697,326.082 135.600,325.144 135.705 C 324.673 135.757,324.208 135.575,324.111 135.300 C 323.997 134.980,324.162 134.887,324.567 135.043 C 325.392 135.359,325.445 133.679,324.629 133.044 C 324.315 132.800,324.000 132.150,323.929 131.600 C 323.858 131.050,323.700 130.510,323.578 130.400 C 323.157 130.020,321.600 126.774,321.600 126.276 C 321.600 126.001,321.240 125.517,320.800 125.200 C 320.360 124.883,320.000 124.322,320.000 123.954 C 320.000 123.587,319.721 123.178,319.379 123.047 C 319.038 122.916,318.855 122.965,318.972 123.155 C 319.089 123.345,318.749 123.500,318.216 123.500 C 317.683 123.500,317.162 123.277,317.057 123.005 C 316.953 122.733,317.167 122.510,317.534 122.510 C 318.849 122.510,319.200 122.393,319.200 121.957 C 319.200 121.714,318.921 121.622,318.579 121.753 C 318.238 121.884,318.058 121.829,318.181 121.632 C 318.545 121.042,317.999 120.093,317.171 119.876 C 316.660 119.743,316.480 119.458,316.641 119.037 C 316.776 118.687,316.697 118.400,316.466 118.400 C 315.657 118.400,315.529 119.258,316.223 120.025 C 316.608 120.451,316.761 120.798,316.562 120.795 C 316.363 120.792,315.793 120.162,315.296 119.395 C 314.799 118.628,314.220 118.000,314.009 118.000 C 313.798 118.000,313.735 117.715,313.868 117.366 C 314.054 116.882,314.185 116.852,314.424 117.238 C 314.878 117.973,316.000 118.033,316.000 117.322 C 316.000 116.937,315.772 116.802,315.379 116.953 C 315.023 117.089,314.863 117.022,315.003 116.795 C 315.137 116.578,315.057 116.400,314.824 116.400 C 314.591 116.400,314.400 116.130,314.400 115.800 C 314.400 115.470,314.232 115.200,314.027 115.200 C 313.822 115.200,313.538 114.834,313.396 114.388 C 313.254 113.941,312.405 112.906,311.510 112.088 C 308.999 109.794,308.410 109.108,308.637 108.739 C 308.753 108.553,308.606 108.400,308.312 108.400 C 308.017 108.400,307.517 108.040,307.200 107.600 C 306.883 107.160,306.392 106.800,306.108 106.800 C 305.693 106.800,305.690 106.956,306.093 107.600 C 306.368 108.040,306.798 108.400,307.050 108.400 C 307.302 108.400,307.829 108.890,308.222 109.490 C 308.615 110.089,309.249 110.915,309.631 111.325 C 310.472 112.228,310.944 113.727,310.263 113.334 C 310.008 113.187,308.078 111.940,305.974 110.564 C 298.936 105.959,289.226 101.521,282.800 99.974 C 271.493 97.250,262.976 96.426,254.400 97.226 M199.490 98.184 C 198.151 98.882,196.974 100.000,197.577 100.000 C 198.148 100.000,199.548 99.176,200.466 98.300 C 201.357 97.450,200.982 97.406,199.490 98.184 M195.067 101.467 C 194.581 101.953,194.790 102.379,195.400 102.145 C 195.730 102.018,196.000 101.754,196.000 101.557 C 196.000 101.138,195.449 101.084,195.067 101.467 M192.389 104.132 C 191.614 104.829,190.490 105.758,189.890 106.195 C 189.291 106.632,188.800 107.208,188.800 107.475 C 188.800 107.742,188.486 108.136,188.103 108.350 C 187.720 108.565,187.558 108.888,187.742 109.070 C 187.927 109.251,188.591 108.770,189.218 108.000 C 189.845 107.230,190.530 106.447,190.739 106.260 C 190.949 106.073,191.498 105.578,191.960 105.160 C 192.422 104.742,192.961 104.400,193.157 104.400 C 193.502 104.400,194.134 103.200,193.908 102.975 C 193.847 102.914,193.163 103.435,192.389 104.132 M304.400 105.600 C 305.716 106.630,306.387 106.630,305.200 105.600 C 304.693 105.160,304.080 104.804,303.839 104.809 C 303.597 104.814,303.850 105.170,304.400 105.600 M312.119 113.413 C 312.736 114.260,312.750 114.400,312.219 114.400 C 311.878 114.400,311.600 114.591,311.600 114.824 C 311.600 115.057,311.384 115.114,311.120 114.950 C 310.766 114.732,310.760 114.613,311.100 114.500 C 311.417 114.394,311.445 114.045,311.190 113.373 C 310.715 112.124,311.195 112.144,312.119 113.413 M182.604 113.996 C 180.995 115.675,181.502 115.823,183.181 114.164 C 183.940 113.414,184.379 112.800,184.156 112.800 C 183.932 112.800,183.234 113.338,182.604 113.996 M158.989 115.068 C 158.269 115.788,158.219 116.163,158.900 115.729 C 159.175 115.554,160.030 115.371,160.800 115.323 C 166.007 114.998,167.179 114.449,162.629 114.466 C 160.488 114.475,159.403 114.654,158.989 115.068 M167.015 114.775 C 166.886 114.985,167.465 115.141,168.331 115.129 C 169.182 115.117,170.309 115.244,170.836 115.411 C 171.692 115.683,171.735 115.645,171.248 115.058 C 170.651 114.338,167.419 114.122,167.015 114.775 M313.418 116.112 C 313.449 116.694,313.320 117.074,313.131 116.957 C 312.942 116.840,312.883 116.590,313.000 116.400 C 313.117 116.210,313.030 115.942,312.807 115.804 C 312.236 115.451,312.298 114.699,312.881 114.894 C 313.145 114.982,313.387 115.530,313.418 116.112 M154.200 115.600 C 154.064 115.820,154.334 116.000,154.800 116.000 C 155.266 116.000,155.536 115.820,155.400 115.600 C 155.264 115.380,154.994 115.200,154.800 115.200 C 154.606 115.200,154.336 115.380,154.200 115.600 M178.641 116.333 C 178.513 116.540,178.777 116.805,179.227 116.923 C 179.726 117.053,179.988 116.964,179.898 116.694 C 179.697 116.092,178.927 115.871,178.641 116.333 M145.360 118.180 C 144.352 118.917,144.754 119.194,145.935 118.578 C 146.450 118.310,146.701 117.986,146.494 117.858 C 146.287 117.730,145.777 117.875,145.360 118.180 M141.200 119.800 C 140.562 120.569,141.213 120.577,142.224 119.813 C 142.876 119.319,142.896 119.223,142.349 119.213 C 141.991 119.206,141.474 119.470,141.200 119.800 M132.600 124.800 C 131.762 125.726,132.161 125.896,133.061 124.996 C 133.393 124.664,133.858 124.512,134.094 124.658 C 134.349 124.815,134.407 124.736,134.238 124.462 C 133.831 123.803,133.427 123.887,132.600 124.800 M128.104 128.100 C 127.643 128.595,126.845 129.313,126.332 129.696 C 125.548 130.281,125.527 130.348,126.200 130.116 C 127.125 129.797,129.916 127.200,129.333 127.200 C 129.119 127.200,128.566 127.605,128.104 128.100 M119.669 136.439 C 119.380 136.900,119.243 137.376,119.363 137.496 C 119.689 137.823,120.800 136.784,120.800 136.151 C 120.800 135.343,120.268 135.479,119.669 136.439 M118.100 138.623 C 117.825 138.922,117.600 139.354,117.600 139.583 C 117.600 139.812,117.409 140.000,117.176 140.000 C 116.943 140.000,116.876 140.200,117.028 140.445 C 117.197 140.718,117.610 140.404,118.101 139.628 C 118.944 138.296,118.944 137.708,118.100 138.623 M370.800 170.781 C 370.800 171.297,369.656 171.614,369.383 171.173 C 369.250 170.957,369.379 170.830,369.670 170.890 C 369.962 170.951,370.151 170.762,370.090 170.470 C 370.030 170.179,370.165 170.055,370.390 170.194 C 370.616 170.333,370.800 170.597,370.800 170.781 M374.400 176.402 C 374.400 176.953,373.298 176.433,373.040 175.760 C 372.862 175.296,372.974 175.265,373.609 175.605 C 374.044 175.838,374.400 176.196,374.400 176.402 M379.564 189.422 C 379.730 189.319,379.867 189.497,379.867 189.818 C 379.867 190.552,379.692 190.550,378.946 189.803 C 378.600 189.457,378.482 188.995,378.665 188.703 C 378.897 188.333,379.018 188.387,379.121 188.905 C 379.198 189.293,379.397 189.526,379.564 189.422 M381.443 212.571 C 381.301 213.137,380.908 213.600,380.570 213.600 C 380.023 213.600,380.021 213.505,380.547 212.754 C 380.873 212.289,381.037 211.614,380.911 211.254 C 380.731 210.741,380.792 210.701,381.192 211.071 C 381.503 211.358,381.601 211.942,381.443 212.571 M378.183 224.550 C 377.946 225.811,377.822 225.933,377.145 225.570 C 376.392 225.167,376.394 225.133,377.231 223.956 C 378.273 222.494,378.538 222.659,378.183 224.550 M87.882 225.127 C 89.522 227.204,89.319 229.053,87.354 229.948 C 84.664 231.174,81.569 227.822,83.313 225.571 C 84.583 223.932,86.771 223.719,87.882 225.127 M97.982 231.446 C 101.485 234.393,102.480 237.771,100.579 240.263 C 97.632 244.126,92.061 243.608,89.945 239.273 C 87.358 233.972,93.674 227.822,97.982 231.446 M372.150 236.719 C 372.258 236.895,372.162 237.300,371.936 237.619 C 371.597 238.098,371.563 238.080,371.742 237.520 C 371.894 237.045,371.786 236.907,371.382 237.062 C 371.064 237.184,370.921 237.473,371.064 237.704 C 371.212 237.943,371.133 238.005,370.879 237.849 C 370.635 237.698,370.536 237.310,370.660 236.987 C 370.901 236.359,371.825 236.193,372.150 236.719 M196.600 261.200 C 197.267 261.486,197.179 261.548,196.076 261.572 C 195.290 261.589,194.853 261.438,195.000 261.200 C 195.288 260.734,195.515 260.734,196.600 261.200 M214.734 261.649 C 214.230 261.969,214.282 262.029,215.167 262.150 C 215.368 262.178,215.663 262.329,215.821 262.487 C 215.979 262.646,215.721 262.700,215.247 262.609 C 214.312 262.429,213.113 261.421,213.442 261.091 C 213.554 260.979,214.011 260.982,214.457 261.099 C 215.076 261.261,215.142 261.391,214.734 261.649 M250.688 261.782 C 250.317 262.179,250.119 262.176,249.711 261.769 C 248.974 261.031,249.074 260.887,250.176 261.098 C 250.935 261.243,251.049 261.395,250.688 261.782 M312.409 261.595 C 312.146 261.757,311.979 262.049,312.037 262.245 C 312.096 262.440,311.841 262.658,311.472 262.729 C 311.102 262.800,310.800 262.655,310.800 262.406 C 310.800 262.157,310.960 262.051,311.155 262.172 C 311.350 262.292,311.607 262.015,311.728 261.555 C 311.861 261.044,312.128 260.832,312.416 261.010 C 312.774 261.231,312.772 261.370,312.409 261.595 M327.667 261.566 C 328.483 261.131,328.538 261.144,328.103 261.671 C 327.830 262.003,327.683 262.349,327.776 262.442 C 327.868 262.535,327.431 262.632,326.803 262.657 C 325.941 262.693,325.718 262.557,325.893 262.102 C 326.093 261.581,325.995 261.584,325.162 262.130 C 324.174 262.777,323.381 262.816,322.493 262.261 C 321.918 261.902,322.205 261.197,322.924 261.206 C 323.210 261.210,323.161 261.367,322.800 261.600 C 322.470 261.813,322.290 262.004,322.400 262.024 C 322.510 262.045,322.948 262.126,323.373 262.206 C 324.422 262.402,325.691 261.677,325.342 261.080 C 325.188 260.816,325.438 260.929,325.898 261.332 C 326.606 261.952,326.876 261.988,327.667 261.566 M304.617 261.572 C 304.491 261.777,304.557 262.050,304.766 262.179 C 304.974 262.308,305.258 262.230,305.397 262.005 C 305.550 261.758,305.914 261.734,306.324 261.945 C 306.696 262.136,307.209 262.217,307.463 262.125 C 307.718 262.033,308.044 262.147,308.187 262.379 C 308.488 262.866,305.304 262.768,304.500 262.266 C 303.890 261.884,303.841 261.200,304.424 261.200 C 304.657 261.200,304.744 261.368,304.617 261.572 M318.128 262.516 C 318.008 262.710,317.596 262.788,317.212 262.687 C 316.828 262.587,316.248 262.653,315.923 262.835 C 315.526 263.058,315.333 262.980,315.333 262.598 C 315.333 262.213,315.692 262.073,316.448 262.161 C 317.062 262.232,317.550 262.180,317.534 262.045 C 317.445 261.296,317.659 261.073,317.980 261.581 C 318.182 261.900,318.249 262.321,318.128 262.516 M213.600 262.509 C 213.600 262.743,213.486 262.820,213.347 262.681 C 213.208 262.542,212.745 262.615,212.317 262.844 C 211.620 263.218,211.584 263.177,211.976 262.445 C 212.414 261.627,213.600 261.674,213.600 262.509 M221.785 262.150 C 222.079 262.038,222.417 262.104,222.537 262.298 C 222.657 262.493,222.045 262.646,221.178 262.640 C 220.310 262.634,219.600 262.468,219.600 262.272 C 219.600 262.075,219.870 262.018,220.200 262.145 C 220.530 262.271,220.814 262.156,220.832 261.887 C 220.856 261.517,220.910 261.514,221.057 261.878 C 221.164 262.140,221.492 262.263,221.785 262.150 M231.600 262.443 C 231.600 262.639,231.420 262.800,231.200 262.800 C 230.980 262.800,230.800 262.609,230.800 262.376 C 230.800 262.143,230.592 262.081,230.338 262.238 C 230.059 262.411,229.985 262.348,230.151 262.079 C 230.454 261.589,231.600 261.876,231.600 262.443 M236.221 262.433 C 236.335 262.619,235.905 262.732,235.266 262.685 C 234.586 262.635,234.175 262.411,234.277 262.144 C 234.463 261.659,235.872 261.869,236.221 262.433 M254.700 262.113 C 254.975 262.014,255.200 262.128,255.200 262.367 C 255.200 262.605,254.570 262.800,253.800 262.800 C 253.030 262.800,252.400 262.650,252.400 262.467 C 252.400 261.847,252.902 261.626,253.553 261.960 C 253.909 262.143,254.425 262.211,254.700 262.113 M282.000 262.200 C 281.419 262.900,280.400 263.000,280.400 262.357 C 280.400 262.114,280.664 262.016,280.987 262.140 C 281.310 262.264,281.681 262.193,281.811 261.983 C 281.941 261.772,282.149 261.600,282.273 261.600 C 282.397 261.600,282.274 261.870,282.000 262.200 M314.800 262.358 C 314.800 262.507,314.440 262.657,314.000 262.690 C 313.220 262.749,312.958 262.376,313.439 261.894 C 313.726 261.607,314.800 261.973,314.800 262.358 M204.800 262.492 C 204.800 262.735,204.686 262.820,204.547 262.681 C 204.408 262.542,203.963 262.606,203.556 262.823 C 202.998 263.122,202.867 263.090,203.019 262.694 C 203.266 262.051,204.800 261.877,204.800 262.492 M228.400 262.355 C 228.400 262.504,227.950 262.663,227.400 262.708 C 226.850 262.754,226.400 262.658,226.400 262.496 C 226.400 262.333,226.850 262.174,227.400 262.142 C 227.950 262.111,228.400 262.206,228.400 262.355 M269.741 262.408 C 269.856 262.523,269.061 262.640,267.975 262.668 C 266.889 262.697,266.000 262.602,266.000 262.459 C 266.000 262.151,269.437 262.104,269.741 262.408 M290.290 262.556 C 290.447 262.714,289.827 262.799,288.912 262.745 C 287.997 262.691,287.336 262.503,287.444 262.329 C 287.672 261.959,289.868 262.135,290.290 262.556 M298.990 262.523 C 299.105 262.675,299.086 262.716,298.947 262.614 C 298.808 262.512,298.388 262.592,298.014 262.792 C 297.522 263.056,297.333 263.000,297.333 262.591 C 297.333 262.031,298.577 261.980,298.990 262.523 " stroke="none" fill="#b4dcfd" fill-rule="evenodd"></path><path id="path1" d="M243.215 83.121 C 241.794 83.188,240.385 83.446,240.085 83.696 C 239.671 84.039,239.450 84.010,239.170 83.574 C 238.929 83.200,238.696 83.144,238.500 83.413 C 238.155 83.889,237.602 83.916,236.934 83.491 C 236.678 83.328,236.404 83.387,236.326 83.621 C 236.248 83.856,235.389 84.059,234.417 84.072 C 233.305 84.087,232.419 84.345,232.025 84.767 C 231.681 85.136,231.537 85.229,231.703 84.974 C 231.915 84.650,231.703 84.568,231.003 84.701 C 230.452 84.807,230.000 85.038,230.000 85.216 C 230.000 85.745,227.138 86.526,225.299 86.498 C 224.327 86.483,223.341 86.716,223.022 87.035 C 222.703 87.355,222.159 87.482,221.764 87.331 C 221.336 87.167,221.166 87.222,221.322 87.474 C 221.461 87.699,221.119 88.091,220.562 88.345 C 219.969 88.615,219.652 88.639,219.798 88.403 C 220.257 87.661,219.503 87.990,218.747 88.861 C 218.277 89.403,218.000 89.522,218.000 89.181 C 218.000 88.760,217.893 88.747,217.520 89.120 C 217.256 89.384,216.716 89.600,216.320 89.600 C 215.924 89.600,215.600 89.780,215.600 90.000 C 215.600 90.220,215.229 90.400,214.776 90.400 C 214.323 90.400,214.064 90.580,214.200 90.800 C 214.347 91.038,213.879 91.200,213.047 91.200 C 212.277 91.200,211.536 91.380,211.400 91.600 C 211.038 92.186,210.302 92.090,210.635 91.500 C 210.813 91.184,210.712 91.202,210.359 91.550 C 209.903 91.999,209.897 92.136,210.328 92.293 C 211.218 92.617,208.720 93.667,207.679 93.405 C 207.121 93.265,206.830 93.325,206.970 93.552 C 207.274 94.044,206.055 95.281,205.565 94.978 C 205.361 94.852,205.086 95.031,204.954 95.375 C 204.822 95.719,204.363 96.000,203.934 96.000 C 203.444 96.000,203.260 96.173,203.439 96.463 C 203.632 96.775,203.464 96.858,202.923 96.716 C 202.482 96.601,201.689 96.746,201.161 97.039 C 200.632 97.332,200.425 97.578,200.700 97.586 C 201.388 97.605,200.093 98.840,198.588 99.600 C 197.935 99.930,196.899 100.687,196.287 101.282 C 195.675 101.878,194.934 102.273,194.641 102.160 C 194.295 102.028,194.023 102.383,193.864 103.178 C 193.720 103.900,193.370 104.400,193.010 104.400 C 192.675 104.400,192.400 104.584,192.400 104.809 C 192.400 105.033,191.995 105.407,191.500 105.639 C 191.005 105.871,190.096 106.783,189.479 107.665 C 188.767 108.685,188.147 109.189,187.779 109.047 C 187.461 108.925,187.200 109.012,187.200 109.241 C 187.200 109.987,186.092 110.862,185.864 110.296 C 185.705 109.903,185.657 109.903,185.632 110.295 C 185.581 111.094,184.296 112.382,183.829 112.103 C 183.593 111.962,183.621 112.120,183.892 112.455 C 184.303 112.962,184.087 113.338,182.587 114.726 C 181.599 115.641,180.792 116.482,180.795 116.595 C 180.821 117.683,180.773 117.777,180.449 117.266 C 180.263 116.972,179.996 116.747,179.855 116.766 C 178.843 116.901,178.389 116.741,178.639 116.337 C 178.834 116.022,178.658 115.944,178.088 116.093 C 177.628 116.213,176.880 116.051,176.426 115.733 C 175.944 115.396,175.600 115.331,175.600 115.577 C 175.600 115.810,175.330 116.000,175.000 116.000 C 174.670 116.000,174.400 115.820,174.400 115.600 C 174.400 115.379,173.545 115.218,172.500 115.241 C 168.936 115.319,166.794 115.134,167.021 114.767 C 167.145 114.565,167.072 114.400,166.857 114.400 C 166.642 114.400,166.376 114.625,166.265 114.900 C 166.110 115.285,166.056 115.279,166.032 114.876 C 166.013 114.560,165.802 114.476,165.500 114.665 C 164.970 114.995,164.107 115.125,161.200 115.312 C 160.210 115.376,159.141 115.588,158.824 115.785 C 158.449 116.016,158.190 115.971,158.085 115.654 C 157.961 115.282,157.790 115.276,157.361 115.632 C 157.052 115.888,156.800 115.934,156.800 115.734 C 156.800 115.534,156.436 115.343,155.991 115.309 C 155.547 115.276,155.287 115.418,155.415 115.624 C 155.543 115.831,155.266 116.000,154.800 116.000 C 154.233 116.000,154.049 115.835,154.245 115.500 C 154.406 115.225,154.145 115.344,153.666 115.764 C 153.187 116.185,152.678 116.411,152.534 116.268 C 152.391 116.124,152.018 116.219,151.706 116.478 C 151.265 116.844,151.058 116.821,150.776 116.374 C 150.480 115.907,150.411 115.935,150.406 116.524 C 150.403 116.922,150.220 117.136,150.000 117.000 C 149.780 116.864,149.600 116.943,149.600 117.176 C 149.600 117.409,148.850 117.600,147.933 117.600 C 147.017 117.600,146.384 117.717,146.527 117.861 C 146.866 118.200,144.934 119.200,143.940 119.200 C 143.518 119.200,142.723 119.494,142.173 119.854 C 141.624 120.214,141.076 120.409,140.954 120.288 C 140.833 120.166,140.388 120.412,139.967 120.833 C 139.545 121.255,138.739 121.600,138.176 121.600 C 137.613 121.600,137.256 121.768,137.383 121.973 C 137.659 122.420,136.013 123.655,135.535 123.360 C 135.351 123.246,135.200 123.343,135.200 123.576 C 135.200 123.809,134.964 124.000,134.675 124.000 C 134.387 124.000,133.764 124.360,133.292 124.800 C 132.820 125.240,132.246 125.600,132.017 125.600 C 131.788 125.600,131.600 125.774,131.600 125.987 C 131.600 126.201,131.330 126.271,131.000 126.145 C 130.623 126.000,130.400 126.149,130.400 126.545 C 130.400 126.948,130.178 127.090,129.784 126.938 C 129.445 126.808,129.220 126.870,129.284 127.077 C 129.424 127.529,127.030 130.000,126.451 130.000 C 126.225 130.000,125.562 130.628,124.976 131.396 C 124.390 132.164,123.720 132.674,123.488 132.530 C 123.221 132.366,123.161 132.522,123.325 132.950 C 123.508 133.425,123.317 133.739,122.693 133.990 C 122.202 134.188,121.957 134.361,122.149 134.375 C 122.341 134.389,122.267 134.679,121.984 135.019 C 121.574 135.513,121.404 135.533,121.141 135.119 C 120.922 134.774,120.810 134.965,120.806 135.691 C 120.802 136.389,120.463 137.003,119.862 137.396 C 119.346 137.735,118.715 138.469,118.460 139.028 C 118.205 139.587,117.819 139.936,117.603 139.802 C 117.370 139.658,117.317 139.839,117.473 140.245 C 117.651 140.711,117.585 140.838,117.268 140.642 C 116.964 140.454,116.800 140.665,116.800 141.243 C 116.800 141.733,116.681 142.014,116.536 141.869 C 116.254 141.587,115.017 143.131,114.990 143.800 C 114.981 144.020,115.136 144.314,115.335 144.453 C 115.533 144.593,114.864 146.521,113.848 148.738 C 112.832 150.955,112.000 153.010,112.000 153.305 C 112.000 153.599,111.851 154.011,111.670 154.220 C 111.365 154.571,110.756 156.432,109.977 159.400 C 109.212 162.309,108.817 164.864,108.571 168.490 C 108.255 173.133,108.152 173.253,104.294 173.471 C 101.505 173.628,100.724 173.768,96.800 174.813 C 87.426 177.310,79.671 182.420,73.352 190.266 C 72.498 191.325,71.488 192.539,71.108 192.963 C 70.294 193.870,66.400 201.611,66.400 202.323 C 66.400 202.591,66.244 203.123,66.054 203.505 C 64.179 207.264,63.162 221.045,64.396 225.980 C 65.262 229.447,65.693 231.004,66.005 231.800 C 66.178 232.240,66.548 233.230,66.828 234.000 C 69.587 241.591,78.185 252.066,84.083 255.022 L 85.400 255.682 84.112 254.541 C 79.340 250.312,75.619 235.694,76.793 225.782 C 79.368 204.033,98.176 186.001,118.286 186.000 C 120.859 186.000,121.200 185.507,121.200 181.789 C 121.200 160.306,139.167 138.103,162.400 130.879 C 169.366 128.713,182.324 128.257,189.764 129.916 C 191.944 130.402,193.766 130.800,193.813 130.800 C 193.860 130.800,195.403 128.977,197.242 126.749 C 217.878 101.752,249.324 91.911,282.800 99.974 C 289.226 101.521,298.936 105.959,305.974 110.564 C 308.078 111.940,310.008 113.187,310.263 113.334 C 310.944 113.727,310.472 112.228,309.631 111.325 C 309.249 110.915,308.615 110.089,308.222 109.490 C 307.829 108.890,307.278 108.400,306.997 108.400 C 306.551 108.400,305.839 107.277,306.010 106.843 C 306.044 106.757,305.502 106.326,304.806 105.885 C 303.891 105.306,303.684 104.996,304.057 104.765 C 304.424 104.538,304.252 104.324,303.462 104.024 C 302.733 103.746,302.455 103.430,302.653 103.101 C 302.891 102.703,302.828 102.701,302.348 103.090 C 301.845 103.497,301.378 103.243,299.589 101.590 C 298.405 100.495,297.243 99.600,297.007 99.600 C 296.382 99.600,295.135 98.028,295.409 97.586 C 295.540 97.373,295.346 97.323,294.963 97.470 C 294.532 97.635,294.080 97.450,293.725 96.965 C 293.417 96.544,293.083 96.245,292.983 96.300 C 292.502 96.563,292.010 96.350,292.100 95.918 C 292.196 95.456,291.975 95.360,290.557 95.250 C 290.179 95.221,290.003 94.969,290.130 94.637 C 290.368 94.018,288.319 92.956,287.666 93.359 C 287.456 93.489,287.176 93.315,287.045 92.972 C 286.913 92.630,286.624 92.461,286.403 92.598 C 286.181 92.735,286.000 92.657,286.000 92.424 C 286.000 92.191,285.730 92.000,285.400 92.000 C 285.070 92.000,284.800 91.820,284.800 91.600 C 284.800 91.380,284.249 91.200,283.576 91.200 C 282.863 91.200,282.456 91.033,282.600 90.800 C 282.740 90.573,282.404 90.400,281.824 90.400 C 281.261 90.400,280.800 90.220,280.800 90.000 C 280.800 89.780,280.470 89.600,280.067 89.600 C 279.663 89.600,279.208 89.475,279.055 89.322 C 278.902 89.169,278.498 89.003,278.157 88.953 C 277.816 88.903,277.237 88.728,276.869 88.565 C 275.997 88.179,275.741 88.111,274.900 88.044 C 274.299 87.996,274.285 87.933,274.800 87.600 C 275.332 87.256,273.604 86.947,272.300 87.153 C 272.135 87.179,272.000 87.020,272.000 86.800 C 272.000 86.580,271.460 86.400,270.800 86.400 C 270.140 86.400,269.600 86.220,269.600 86.000 C 269.600 85.780,269.049 85.600,268.376 85.600 C 267.703 85.600,267.246 85.449,267.360 85.265 C 267.474 85.081,266.809 84.885,265.883 84.831 C 264.958 84.777,263.975 84.717,263.700 84.699 C 263.425 84.681,263.200 84.517,263.200 84.333 C 263.200 84.150,263.009 84.000,262.776 84.000 C 262.543 84.000,262.464 84.180,262.600 84.400 C 262.736 84.620,262.667 84.800,262.447 84.800 C 262.227 84.800,261.936 84.620,261.800 84.400 C 261.664 84.180,260.494 84.000,259.200 84.000 C 257.906 84.000,256.755 83.851,256.642 83.669 C 256.530 83.487,254.175 83.314,251.408 83.286 C 248.642 83.258,246.249 83.182,246.090 83.117 C 245.930 83.053,244.637 83.055,243.215 83.121 M84.600 224.473 C 82.507 225.699,82.265 227.526,83.969 229.231 C 85.679 230.940,87.909 230.550,88.806 228.384 C 89.772 226.053,86.731 223.226,84.600 224.473 M92.396 231.300 C 87.080 234.918,89.102 242.800,95.345 242.800 C 100.479 242.800,103.175 238.234,100.412 234.218 C 97.774 230.383,95.147 229.427,92.396 231.300 M85.600 255.784 C 85.600 255.894,86.320 256.351,87.200 256.800 C 88.080 257.249,88.800 257.526,88.800 257.416 C 88.800 257.306,88.080 256.849,87.200 256.400 C 86.320 255.951,85.600 255.674,85.600 255.784 M89.200 257.715 C 89.200 257.991,94.459 260.074,94.657 259.876 C 94.744 259.789,93.868 259.348,92.708 258.897 C 91.549 258.447,90.285 257.951,89.900 257.796 C 89.515 257.641,89.200 257.605,89.200 257.715 M96.000 260.400 C 97.368 260.838,98.419 260.838,97.400 260.400 C 96.960 260.211,96.240 260.062,95.800 260.068 C 95.157 260.077,95.196 260.143,96.000 260.400 M99.200 261.200 C 99.750 261.376,100.650 261.520,101.200 261.520 L 102.200 261.520 101.200 261.200 C 100.650 261.024,99.750 260.880,99.200 260.880 L 98.200 260.880 99.200 261.200 M103.907 261.890 C 104.626 261.979,105.706 261.977,106.307 261.886 C 106.908 261.795,106.320 261.722,105.000 261.724 C 103.680 261.726,103.188 261.801,103.907 261.890 M109.300 261.876 C 109.685 261.976,110.315 261.976,110.700 261.876 C 111.085 261.775,110.770 261.693,110.000 261.693 C 109.230 261.693,108.915 261.775,109.300 261.876 M113.700 261.876 C 114.085 261.976,114.715 261.976,115.100 261.876 C 115.485 261.775,115.170 261.693,114.400 261.693 C 113.630 261.693,113.315 261.775,113.700 261.876 M118.305 261.883 C 118.802 261.979,119.522 261.975,119.905 261.875 C 120.287 261.775,119.880 261.696,119.000 261.701 C 118.120 261.705,117.807 261.787,118.305 261.883 M122.705 261.883 C 123.202 261.979,123.922 261.975,124.305 261.875 C 124.687 261.775,124.280 261.696,123.400 261.701 C 122.520 261.705,122.207 261.787,122.705 261.883 M127.300 261.876 C 127.685 261.976,128.315 261.976,128.700 261.876 C 129.085 261.775,128.770 261.693,128.000 261.693 C 127.230 261.693,126.915 261.775,127.300 261.876 M131.700 261.876 C 132.085 261.976,132.715 261.976,133.100 261.876 C 133.485 261.775,133.170 261.693,132.400 261.693 C 131.630 261.693,131.315 261.775,131.700 261.876 M136.305 261.883 C 136.802 261.979,137.522 261.975,137.905 261.875 C 138.287 261.775,137.880 261.696,137.000 261.701 C 136.120 261.705,135.807 261.787,136.305 261.883 M140.705 261.883 C 141.202 261.979,141.922 261.975,142.305 261.875 C 142.687 261.775,142.280 261.696,141.400 261.701 C 140.520 261.705,140.207 261.787,140.705 261.883 M144.900 261.876 C 145.285 261.976,145.915 261.976,146.300 261.876 C 146.685 261.775,146.370 261.693,145.600 261.693 C 144.830 261.693,144.515 261.775,144.900 261.876 M154.305 261.883 C 154.802 261.979,155.522 261.975,155.905 261.875 C 156.287 261.775,155.880 261.696,155.000 261.701 C 154.120 261.705,153.807 261.787,154.305 261.883 M158.705 261.883 C 159.202 261.979,159.922 261.975,160.305 261.875 C 160.687 261.775,160.280 261.696,159.400 261.701 C 158.520 261.705,158.207 261.787,158.705 261.883 M163.105 261.883 C 163.602 261.979,164.322 261.975,164.705 261.875 C 165.087 261.775,164.680 261.696,163.800 261.701 C 162.920 261.705,162.607 261.787,163.105 261.883 M167.700 261.876 C 168.085 261.976,168.715 261.976,169.100 261.876 C 169.485 261.775,169.170 261.693,168.400 261.693 C 167.630 261.693,167.315 261.775,167.700 261.876 M172.305 261.883 C 172.802 261.979,173.522 261.975,173.905 261.875 C 174.287 261.775,173.880 261.696,173.000 261.701 C 172.120 261.705,171.807 261.787,172.305 261.883 M176.705 261.883 C 177.202 261.979,177.922 261.975,178.305 261.875 C 178.687 261.775,178.280 261.696,177.400 261.701 C 176.520 261.705,176.207 261.787,176.705 261.883 M181.105 261.883 C 181.602 261.979,182.322 261.975,182.705 261.875 C 183.087 261.775,182.680 261.696,181.800 261.701 C 180.920 261.705,180.607 261.787,181.105 261.883 " stroke="none" fill="#daeefe" fill-rule="evenodd"></path><path id="path2" d="M311.024 112.800 C 311.536 113.668,311.589 114.400,311.141 114.400 C 310.927 114.400,310.876 114.599,311.026 114.843 C 311.194 115.113,311.397 115.136,311.550 114.903 C 311.688 114.692,312.036 114.444,312.324 114.352 C 312.679 114.238,312.498 113.865,311.759 113.192 C 311.161 112.646,310.830 112.470,311.024 112.800 M312.400 115.143 C 312.400 115.368,312.583 115.666,312.807 115.804 C 313.030 115.942,313.117 116.210,313.000 116.400 C 312.883 116.590,312.942 116.840,313.131 116.957 C 313.320 117.074,313.449 116.694,313.418 116.112 C 313.366 115.137,312.400 114.218,312.400 115.143 M313.868 117.366 C 313.735 117.715,313.798 118.000,314.009 118.000 C 314.220 118.000,314.799 118.628,315.296 119.395 C 315.793 120.162,316.357 120.792,316.549 120.795 C 316.741 120.798,316.651 120.501,316.349 120.135 C 316.047 119.770,315.800 119.096,315.800 118.637 C 315.800 118.179,315.568 117.803,315.285 117.802 C 315.002 117.801,314.622 117.560,314.441 117.266 C 314.176 116.838,314.064 116.857,313.868 117.366 M317.072 123.044 C 317.310 123.664,319.067 123.625,319.067 122.999 C 319.067 122.711,318.607 122.518,317.982 122.543 C 317.347 122.569,316.970 122.777,317.072 123.044 M324.092 135.275 C 324.291 135.873,325.200 136.202,325.200 135.676 C 325.200 135.461,324.915 135.176,324.567 135.043 C 324.177 134.893,323.994 134.982,324.092 135.275 M343.746 151.384 C 343.717 151.870,343.906 152.267,344.166 152.267 C 344.790 152.267,344.881 150.917,344.273 150.683 C 344.005 150.581,343.777 150.885,343.746 151.384 M347.200 152.315 C 347.200 152.488,347.564 152.657,348.009 152.691 C 348.453 152.724,348.713 152.582,348.585 152.376 C 348.304 151.921,347.200 151.873,347.200 152.315 M352.313 155.167 C 352.524 155.732,352.467 155.737,351.775 155.207 C 351.013 154.624,351.013 154.629,351.750 155.494 C 352.378 156.230,352.640 156.300,353.350 155.922 C 354.116 155.514,354.146 155.535,353.651 156.135 C 353.166 156.723,353.212 156.799,354.051 156.794 C 354.724 156.790,354.845 156.689,354.466 156.449 C 354.172 156.263,353.902 155.951,353.866 155.755 C 353.830 155.560,353.665 155.445,353.500 155.500 C 353.335 155.555,353.200 155.360,353.200 155.067 C 353.200 154.773,352.947 154.533,352.638 154.533 C 352.293 154.533,352.167 154.777,352.313 155.167 M357.302 158.460 C 357.908 158.905,358.314 159.415,358.204 159.593 C 358.094 159.771,358.278 160.021,358.612 160.149 C 359.106 160.339,359.140 160.236,358.795 159.591 C 358.562 159.156,358.513 158.795,358.686 158.788 C 359.157 158.770,357.492 157.845,356.800 157.741 C 356.470 157.691,356.696 158.015,357.302 158.460 M361.365 160.700 C 361.521 160.977,361.437 161.200,361.175 161.200 C 360.825 161.200,360.818 161.339,361.148 161.737 C 361.393 162.032,361.487 162.380,361.357 162.510 C 361.227 162.640,361.499 162.647,361.960 162.526 C 363.003 162.254,363.002 162.174,361.941 161.083 C 361.469 160.597,361.209 160.425,361.365 160.700 M366.933 167.412 C 366.933 167.716,367.114 167.853,367.335 167.717 C 367.570 167.571,367.635 167.732,367.492 168.105 C 367.357 168.455,367.507 168.957,367.824 169.220 C 368.141 169.483,368.400 169.564,368.400 169.400 C 368.400 169.236,368.715 169.349,369.100 169.651 C 369.709 170.129,369.740 170.122,369.334 169.600 C 369.078 169.270,368.837 168.869,368.799 168.709 C 368.457 167.269,368.258 166.960,367.642 166.913 C 367.252 166.884,366.933 167.108,366.933 167.412 M370.090 170.470 C 370.151 170.762,369.962 170.951,369.670 170.890 C 369.379 170.830,369.250 170.957,369.383 171.173 C 369.656 171.614,370.800 171.297,370.800 170.781 C 370.800 170.597,370.616 170.333,370.390 170.194 C 370.165 170.055,370.030 170.179,370.090 170.470 M373.040 175.760 C 373.298 176.433,374.400 176.953,374.400 176.402 C 374.400 176.196,374.044 175.838,373.609 175.605 C 372.974 175.265,372.862 175.296,373.040 175.760 M378.665 188.703 C 378.482 188.995,378.600 189.457,378.946 189.803 C 379.692 190.550,379.867 190.552,379.867 189.818 C 379.867 189.497,379.730 189.319,379.564 189.422 C 379.397 189.526,379.198 189.293,379.121 188.905 C 379.018 188.387,378.897 188.333,378.665 188.703 M380.093 192.800 C 379.676 193.467,379.693 193.600,380.197 193.600 C 380.533 193.600,380.800 193.246,380.800 192.800 C 380.800 192.360,380.753 192.000,380.696 192.000 C 380.639 192.000,380.368 192.360,380.093 192.800 M380.911 211.254 C 381.037 211.614,380.873 212.289,380.547 212.754 C 380.021 213.505,380.023 213.600,380.570 213.600 C 381.387 213.600,381.858 211.686,381.192 211.071 C 380.792 210.701,380.731 210.741,380.911 211.254 M379.600 220.043 C 379.600 220.286,379.330 220.382,379.000 220.255 C 378.210 219.952,378.243 220.088,379.150 220.864 C 379.853 221.466,379.900 221.447,379.900 220.553 C 379.900 220.029,379.832 219.600,379.750 219.600 C 379.668 219.600,379.600 219.799,379.600 220.043 M377.231 223.956 C 376.394 225.133,376.392 225.167,377.145 225.570 C 377.822 225.933,377.946 225.811,378.183 224.550 C 378.538 222.659,378.273 222.494,377.231 223.956 M376.632 227.060 C 376.293 227.944,376.577 228.150,377.162 227.445 C 377.446 227.103,377.486 226.777,377.261 226.638 C 377.054 226.510,376.771 226.699,376.632 227.060 M370.660 236.987 C 370.536 237.310,370.635 237.698,370.879 237.849 C 371.133 238.005,371.212 237.943,371.064 237.704 C 370.921 237.473,371.064 237.184,371.382 237.062 C 371.786 236.907,371.894 237.045,371.742 237.520 C 371.563 238.080,371.597 238.098,371.936 237.619 C 372.162 237.300,372.258 236.895,372.150 236.719 C 371.825 236.193,370.901 236.359,370.660 236.987 M368.999 239.601 C 368.857 239.831,369.099 239.949,369.565 239.878 C 370.714 239.703,371.103 239.200,370.090 239.200 C 369.627 239.200,369.136 239.381,368.999 239.601 M368.500 240.665 C 367.793 240.950,367.878 241.600,368.624 241.600 C 368.967 241.600,369.145 241.435,369.021 241.234 C 368.897 241.033,369.021 240.777,369.298 240.666 C 369.574 240.554,369.620 240.463,369.400 240.463 C 369.180 240.463,368.775 240.554,368.500 240.665 M365.251 244.467 C 364.717 245.321,365.101 245.401,366.100 244.643 C 366.941 244.005,366.987 243.733,366.255 243.733 C 365.955 243.733,365.503 244.063,365.251 244.467 M82.800 253.180 C 82.800 254.417,91.435 258.911,96.000 260.049 C 102.904 261.770,101.332 261.713,144.200 261.793 C 181.420 261.862,185.132 261.928,186.500 262.540 C 187.873 263.154,188.000 263.156,188.000 262.563 C 188.000 262.185,187.776 262.000,187.464 262.120 C 187.169 262.233,186.674 262.146,186.364 261.925 C 185.922 261.611,185.956 261.575,186.521 261.758 C 186.943 261.894,187.140 261.827,186.997 261.595 C 186.863 261.378,186.133 261.200,185.376 261.200 C 184.619 261.200,184.000 261.028,184.000 260.817 C 184.000 260.576,168.101 260.390,141.133 260.317 C 107.279 260.225,98.231 260.095,98.100 259.700 C 97.998 259.395,97.202 259.200,96.055 259.200 C 94.635 259.200,94.036 259.005,93.600 258.400 C 93.283 257.960,92.613 257.600,92.112 257.600 C 91.610 257.600,91.200 257.420,91.200 257.200 C 91.200 256.980,90.840 256.800,90.400 256.800 C 89.960 256.800,89.600 256.620,89.600 256.400 C 89.600 256.180,89.240 256.000,88.800 256.000 C 88.360 256.000,88.000 255.820,88.000 255.600 C 88.000 255.380,87.640 255.200,87.200 255.200 C 86.760 255.200,86.400 255.020,86.400 254.800 C 86.400 254.580,86.080 254.400,85.688 254.400 C 85.297 254.400,84.717 254.040,84.400 253.600 C 83.805 252.774,82.800 252.510,82.800 253.180 M354.216 253.339 C 353.702 253.715,353.619 253.965,353.942 254.164 C 354.201 254.324,354.511 254.175,354.645 253.828 C 354.776 253.485,355.073 253.321,355.304 253.464 C 355.549 253.616,355.605 253.531,355.438 253.262 C 355.084 252.688,355.108 252.687,354.216 253.339 M352.353 254.300 C 352.327 254.465,352.327 254.735,352.353 254.900 C 352.379 255.065,352.085 255.203,351.700 255.206 C 351.113 255.211,351.095 255.272,351.588 255.584 C 351.912 255.789,352.233 255.901,352.301 255.832 C 352.518 255.615,352.761 254.000,352.577 254.000 C 352.480 254.000,352.379 254.135,352.353 254.300 M348.460 256.380 C 348.548 256.644,348.750 256.847,348.910 256.830 C 349.388 256.781,349.296 256.232,348.780 256.060 C 348.516 255.972,348.372 256.116,348.460 256.380 M342.580 258.742 C 342.703 259.585,343.383 259.744,343.949 259.062 C 344.327 258.605,344.232 258.461,343.454 258.312 C 342.751 258.178,342.514 258.294,342.580 258.742 M334.700 260.276 C 334.289 260.383,334.013 260.818,334.032 261.329 C 334.049 261.808,334.154 261.975,334.265 261.700 C 334.376 261.425,334.642 261.200,334.857 261.200 C 335.072 261.200,335.133 261.425,334.994 261.700 C 334.855 261.975,334.997 261.888,335.310 261.506 C 335.623 261.125,336.035 260.945,336.226 261.106 C 336.417 261.268,336.333 261.085,336.038 260.700 C 335.743 260.315,335.479 260.021,335.451 260.046 C 335.423 260.072,335.085 260.175,334.700 260.276 M338.222 260.436 C 338.326 260.603,338.093 260.822,337.705 260.923 C 337.115 261.077,337.107 261.115,337.651 261.154 C 338.009 261.179,338.501 260.960,338.745 260.667 C 339.079 260.264,339.046 260.133,338.611 260.133 C 338.294 260.133,338.119 260.270,338.222 260.436 M195.000 261.200 C 194.853 261.438,195.290 261.589,196.076 261.572 C 197.179 261.548,197.267 261.486,196.600 261.200 C 195.515 260.734,195.288 260.734,195.000 261.200 M213.442 261.091 C 213.113 261.421,214.312 262.429,215.247 262.609 C 215.721 262.700,215.979 262.646,215.821 262.487 C 215.663 262.329,215.368 262.178,215.167 262.150 C 214.282 262.029,214.230 261.969,214.734 261.649 C 215.142 261.391,215.076 261.261,214.457 261.099 C 214.011 260.982,213.554 260.979,213.442 261.091 M235.600 261.104 C 235.600 261.463,237.184 262.525,237.900 262.645 C 238.175 262.691,238.400 262.565,238.400 262.365 C 238.400 262.164,238.034 262.000,237.587 262.000 C 237.141 262.000,236.671 261.730,236.545 261.400 C 236.308 260.783,235.600 260.561,235.600 261.104 M249.200 261.084 C 249.200 261.741,250.261 262.239,250.688 261.782 C 251.049 261.395,250.935 261.243,250.176 261.098 C 249.639 260.995,249.200 260.989,249.200 261.084 M257.732 261.539 C 257.588 262.088,257.275 262.227,256.510 262.081 C 255.834 261.952,255.573 262.033,255.749 262.317 C 256.218 263.076,258.218 262.668,258.073 261.843 C 257.998 261.411,258.118 261.226,258.373 261.383 C 258.608 261.529,258.800 261.457,258.800 261.224 C 258.800 260.503,257.936 260.758,257.732 261.539 M311.728 261.555 C 311.607 262.015,311.350 262.292,311.155 262.172 C 310.960 262.051,310.800 262.157,310.800 262.406 C 310.800 262.655,311.102 262.800,311.472 262.729 C 311.841 262.658,312.096 262.440,312.037 262.245 C 311.979 262.049,312.146 261.757,312.409 261.595 C 312.772 261.370,312.774 261.231,312.416 261.010 C 312.128 260.832,311.861 261.044,311.728 261.555 M325.342 261.080 C 325.691 261.677,324.422 262.402,323.373 262.206 C 322.948 262.126,322.510 262.045,322.400 262.024 C 322.290 262.004,322.470 261.813,322.800 261.600 C 323.161 261.367,323.210 261.210,322.924 261.206 C 322.205 261.197,321.918 261.902,322.493 262.261 C 323.381 262.816,324.174 262.777,325.162 262.130 C 325.995 261.584,326.093 261.581,325.893 262.102 C 325.718 262.557,325.941 262.693,326.803 262.657 C 327.431 262.632,327.868 262.535,327.776 262.442 C 327.683 262.349,327.830 262.003,328.103 261.671 C 328.538 261.144,328.483 261.131,327.667 261.566 C 326.876 261.988,326.606 261.952,325.898 261.332 C 325.438 260.929,325.188 260.816,325.342 261.080 M190.000 261.624 C 190.000 261.857,189.822 261.937,189.605 261.803 C 189.378 261.663,189.311 261.823,189.447 262.179 C 189.787 263.063,190.400 262.948,190.400 262.000 C 190.400 261.560,190.310 261.200,190.200 261.200 C 190.090 261.200,190.000 261.391,190.000 261.624 M304.000 261.576 C 304.000 262.202,304.907 262.572,306.724 262.689 C 307.853 262.762,308.358 262.655,308.187 262.379 C 308.044 262.147,307.718 262.033,307.463 262.125 C 307.209 262.217,306.696 262.136,306.324 261.945 C 305.914 261.734,305.550 261.758,305.397 262.005 C 305.258 262.230,304.974 262.308,304.766 262.179 C 304.557 262.050,304.491 261.777,304.617 261.572 C 304.744 261.368,304.657 261.200,304.424 261.200 C 304.191 261.200,304.000 261.369,304.000 261.576 M317.559 261.400 C 317.529 261.620,317.518 261.910,317.534 262.045 C 317.550 262.180,317.023 262.228,316.362 262.151 C 315.700 262.074,315.252 262.161,315.366 262.344 C 315.623 262.760,317.922 262.850,318.167 262.454 C 318.266 262.293,318.182 261.900,317.980 261.581 C 317.778 261.261,317.588 261.180,317.559 261.400 M212.239 261.894 C 211.758 262.376,212.020 262.749,212.800 262.690 C 213.240 262.657,213.600 262.507,213.600 262.358 C 213.600 261.973,212.526 261.607,212.239 261.894 M220.832 261.887 C 220.814 262.156,220.530 262.271,220.200 262.145 C 219.870 262.018,219.600 262.075,219.600 262.272 C 219.600 262.468,220.310 262.634,221.178 262.640 C 222.045 262.646,222.657 262.493,222.537 262.298 C 222.417 262.104,222.079 262.038,221.785 262.150 C 221.492 262.263,221.164 262.140,221.057 261.878 C 220.910 261.514,220.856 261.517,220.832 261.887 M223.463 261.870 C 222.930 262.403,223.228 262.700,224.300 262.705 C 225.649 262.711,226.093 262.475,225.757 261.930 C 225.589 261.659,225.389 261.695,225.180 262.032 C 224.934 262.431,224.732 262.442,224.294 262.078 C 223.982 261.819,223.608 261.725,223.463 261.870 M230.151 262.079 C 229.985 262.348,230.059 262.411,230.338 262.238 C 230.592 262.081,230.800 262.143,230.800 262.376 C 230.800 262.609,230.980 262.800,231.200 262.800 C 231.812 262.800,231.676 262.115,231.013 261.860 C 230.690 261.736,230.302 261.835,230.151 262.079 M234.277 262.144 C 234.175 262.411,234.586 262.635,235.266 262.685 C 236.525 262.777,236.501 262.224,235.232 261.892 C 234.803 261.780,234.373 261.894,234.277 262.144 M252.653 261.881 C 252.069 262.465,252.487 262.800,253.800 262.800 C 254.570 262.800,255.200 262.605,255.200 262.367 C 255.200 262.128,254.975 262.014,254.700 262.113 C 254.425 262.211,253.909 262.143,253.553 261.960 C 253.197 261.777,252.792 261.742,252.653 261.881 M281.811 261.983 C 281.681 262.193,281.310 262.264,280.987 262.140 C 280.664 262.016,280.400 262.114,280.400 262.357 C 280.400 263.000,281.419 262.900,282.000 262.200 C 282.274 261.870,282.397 261.600,282.273 261.600 C 282.149 261.600,281.941 261.772,281.811 261.983 M292.367 262.029 C 291.700 262.451,291.587 262.418,294.500 262.644 C 295.949 262.756,296.800 262.667,296.800 262.403 C 296.800 262.172,296.340 262.068,295.770 262.171 C 295.204 262.274,294.334 262.203,293.837 262.014 C 293.322 261.818,292.690 261.825,292.367 262.029 M313.439 261.894 C 312.958 262.376,313.220 262.749,314.000 262.690 C 314.440 262.657,314.800 262.507,314.800 262.358 C 314.800 261.973,313.726 261.607,313.439 261.894 M203.200 262.460 C 203.200 262.620,203.560 262.723,204.000 262.690 C 204.440 262.657,204.800 262.499,204.800 262.340 C 204.800 262.180,204.440 262.077,204.000 262.110 C 203.560 262.143,203.200 262.301,203.200 262.460 M226.400 262.496 C 226.400 262.658,226.850 262.754,227.400 262.708 C 228.705 262.600,228.706 262.067,227.400 262.142 C 226.850 262.174,226.400 262.333,226.400 262.496 M266.000 262.459 C 266.000 262.602,266.889 262.697,267.975 262.668 C 269.061 262.640,269.856 262.523,269.741 262.408 C 269.437 262.104,266.000 262.151,266.000 262.459 M274.400 262.300 C 274.400 262.465,274.850 262.600,275.400 262.600 C 275.950 262.600,276.400 262.465,276.400 262.300 C 276.400 262.135,275.950 262.000,275.400 262.000 C 274.850 262.000,274.400 262.135,274.400 262.300 M287.444 262.329 C 287.336 262.503,287.997 262.691,288.912 262.745 C 289.827 262.799,290.447 262.714,290.290 262.556 C 289.868 262.135,287.672 261.959,287.444 262.329 M297.384 262.373 C 297.511 262.580,297.964 262.723,298.391 262.691 C 299.330 262.620,299.085 262.293,297.965 262.122 C 297.518 262.053,297.256 262.167,297.384 262.373 " stroke="none" fill="#b4dcfc" fill-rule="evenodd"></path><path id="path3" d="M114.549 145.010 C 114.677 145.346,114.259 146.741,113.620 148.110 C 111.042 153.632,110.178 156.068,109.191 160.600 C 108.558 163.507,108.455 164.164,107.983 168.282 L 107.514 172.364 105.857 172.565 C 100.004 173.277,97.706 173.688,96.662 174.209 C 96.010 174.534,95.143 174.800,94.734 174.800 C 94.009 174.800,92.033 175.580,88.400 177.301 C 83.358 179.689,74.387 186.958,72.838 189.911 C 72.220 191.089,71.657 190.735,71.883 189.310 C 72.536 185.181,75.080 176.588,76.435 173.932 C 77.560 171.725,77.430 170.907,75.849 170.246 C 75.106 169.936,74.375 169.483,74.225 169.241 C 73.876 168.675,73.200 168.669,73.200 169.231 C 73.200 169.469,72.480 170.354,71.600 171.200 C 70.720 172.046,70.000 172.955,70.000 173.222 C 70.000 173.488,69.684 173.997,69.297 174.353 C 68.911 174.709,68.327 175.540,68.000 176.200 C 67.673 176.860,67.089 177.691,66.703 178.047 C 66.316 178.403,66.000 178.988,66.000 179.347 C 66.000 179.706,65.820 180.000,65.600 180.000 C 65.380 180.000,65.200 180.360,65.200 180.800 C 65.200 181.240,65.020 181.600,64.800 181.600 C 64.580 181.600,64.400 181.960,64.400 182.400 C 64.400 182.840,64.220 183.200,64.000 183.200 C 63.780 183.200,63.600 183.560,63.600 184.000 C 63.600 184.440,63.420 184.800,63.200 184.800 C 62.980 184.800,62.800 185.340,62.800 186.000 C 62.800 186.660,62.620 187.200,62.400 187.200 C 62.180 187.200,62.000 187.560,62.000 188.000 C 62.000 188.440,61.820 188.800,61.600 188.800 C 61.380 188.800,61.200 189.340,61.200 190.000 C 61.200 190.660,61.020 191.200,60.800 191.200 C 60.580 191.200,60.400 191.639,60.400 192.176 C 60.400 192.713,60.220 193.264,60.000 193.400 C 59.780 193.536,59.600 194.237,59.600 194.957 C 59.600 195.677,59.470 196.396,59.312 196.555 C 59.153 196.713,59.077 197.463,59.143 198.221 C 59.211 199.013,59.078 199.600,58.831 199.600 C 58.564 199.600,58.400 200.667,58.400 202.400 C 58.400 204.116,58.235 205.200,57.973 205.200 C 56.513 205.200,57.916 207.408,59.800 208.073 C 63.072 209.229,63.752 210.338,63.422 213.977 C 63.019 218.435,61.573 220.315,58.500 220.381 C 57.563 220.401,57.067 223.200,58.000 223.200 C 58.222 223.200,58.400 224.267,58.400 225.600 C 58.400 227.047,58.571 228.000,58.831 228.000 C 59.084 228.000,59.215 228.643,59.149 229.560 C 59.087 230.418,59.261 231.391,59.535 231.722 C 59.821 232.066,59.928 232.749,59.785 233.318 C 59.646 233.873,59.726 234.431,59.968 234.580 C 60.205 234.727,60.400 235.276,60.400 235.800 C 60.400 236.324,60.580 236.864,60.800 237.000 C 61.020 237.136,61.200 237.580,61.200 237.986 C 61.200 238.784,62.809 242.115,63.300 242.333 C 63.465 242.407,63.600 242.992,63.600 243.633 C 63.600 244.275,63.780 244.800,64.000 244.800 C 64.220 244.800,64.400 245.160,64.400 245.600 C 64.400 246.040,64.580 246.400,64.800 246.400 C 65.020 246.400,65.200 246.720,65.200 247.112 C 65.200 247.503,65.560 248.083,66.000 248.400 C 66.440 248.717,66.800 249.297,66.800 249.688 C 66.800 250.080,66.980 250.400,67.200 250.400 C 67.420 250.400,67.600 250.720,67.600 251.112 C 67.600 251.503,67.960 252.083,68.400 252.400 C 68.840 252.717,69.200 253.257,69.200 253.600 C 69.200 253.943,69.560 254.483,70.000 254.800 C 70.440 255.117,70.800 255.625,70.800 255.928 C 70.800 257.957,73.869 259.075,75.789 257.746 C 80.608 254.410,86.589 260.917,83.976 266.652 C 83.285 268.169,83.237 268.568,83.676 269.129 C 84.630 270.345,85.108 270.770,85.653 270.886 C 85.950 270.949,86.671 271.495,87.257 272.100 C 87.842 272.705,88.526 273.200,88.777 273.200 C 89.028 273.200,89.620 273.560,90.092 274.000 C 90.564 274.440,91.187 274.800,91.475 274.800 C 91.764 274.800,92.000 274.999,92.000 275.243 C 92.000 275.486,92.270 275.582,92.600 275.455 C 92.930 275.329,93.200 275.399,93.200 275.613 C 93.200 275.826,93.545 276.000,93.967 276.000 C 94.388 276.000,94.793 276.167,94.867 276.370 C 94.940 276.574,95.266 276.799,95.590 276.870 C 95.915 276.942,96.425 277.227,96.723 277.504 C 97.021 277.781,97.430 277.905,97.632 277.780 C 97.835 277.655,98.000 277.743,98.000 277.976 C 98.000 278.209,98.360 278.400,98.800 278.400 C 99.240 278.400,99.600 278.580,99.600 278.800 C 99.600 279.020,100.140 279.200,100.800 279.200 C 101.460 279.200,102.000 279.380,102.000 279.600 C 102.000 279.820,102.360 280.000,102.800 280.000 C 103.240 280.000,103.600 280.180,103.600 280.400 C 103.600 280.620,104.140 280.800,104.800 280.800 C 105.460 280.800,106.000 280.980,106.000 281.200 C 106.000 281.420,106.619 281.600,107.376 281.600 C 108.133 281.600,108.864 281.780,109.000 282.000 C 109.136 282.220,109.687 282.400,110.224 282.400 C 110.761 282.400,111.200 282.580,111.200 282.800 C 111.200 283.022,112.267 283.200,113.600 283.200 C 114.933 283.200,116.000 283.378,116.000 283.600 C 116.000 284.173,120.938 284.102,121.520 283.520 C 121.784 283.256,122.000 282.688,122.000 282.258 C 122.000 281.828,122.459 280.873,123.021 280.137 C 126.217 275.947,132.040 276.980,134.035 282.092 L 134.701 283.800 137.751 283.917 C 139.674 283.991,140.800 283.880,140.800 283.617 C 140.800 283.388,141.509 283.200,142.376 283.200 C 143.243 283.200,144.064 283.020,144.200 282.800 C 144.336 282.580,145.157 282.400,146.024 282.400 C 146.891 282.400,147.600 282.220,147.600 282.000 C 147.600 281.780,147.918 281.600,148.306 281.600 C 148.694 281.600,149.996 281.240,151.200 280.800 C 152.404 280.360,153.706 280.000,154.094 280.000 C 154.482 280.000,154.800 279.820,154.800 279.600 C 154.800 279.380,155.160 279.200,155.600 279.200 C 156.040 279.200,156.400 279.020,156.400 278.800 C 156.400 278.580,156.697 278.400,157.060 278.400 C 158.163 278.400,162.000 276.344,162.000 275.753 C 162.000 275.449,162.366 275.200,162.813 275.200 C 163.970 275.200,167.291 273.426,167.988 272.436 C 168.312 271.976,168.891 271.600,169.274 271.600 C 169.658 271.600,170.165 271.240,170.400 270.800 C 170.635 270.360,171.173 270.000,171.594 270.000 C 173.034 270.000,173.198 268.814,172.075 266.524 C 170.872 264.071,170.989 264.107,168.274 265.348 C 165.928 266.421,159.612 268.591,157.800 268.948 C 157.140 269.078,155.412 269.443,153.960 269.759 C 148.540 270.938,140.913 271.375,135.144 270.836 C 130.107 270.366,128.793 270.157,124.400 269.130 C 122.205 268.616,115.847 266.558,114.200 265.828 C 113.540 265.536,111.866 264.796,110.480 264.184 C 109.093 263.573,108.131 262.966,108.341 262.836 C 108.552 262.706,126.186 262.600,147.528 262.600 C 168.871 262.600,186.243 262.510,186.134 262.400 C 186.024 262.290,166.734 262.105,143.267 261.988 L 100.600 261.776 96.800 260.681 C 83.056 256.721,71.274 246.233,66.828 234.000 C 66.548 233.230,66.178 232.240,66.005 231.800 C 65.693 231.004,65.262 229.447,64.396 225.980 C 63.162 221.045,64.179 207.264,66.054 203.505 C 66.244 203.123,66.400 202.591,66.400 202.323 C 66.400 201.611,70.294 193.870,71.108 192.963 C 71.488 192.539,72.498 191.325,73.352 190.266 C 79.617 182.488,87.600 177.205,96.600 174.879 C 97.480 174.652,98.920 174.279,99.800 174.050 C 100.680 173.822,102.702 173.561,104.294 173.471 C 108.152 173.253,108.255 173.133,108.571 168.490 C 108.817 164.864,109.212 162.309,109.977 159.400 C 110.756 156.432,111.365 154.571,111.670 154.220 C 111.851 154.011,112.000 153.599,112.000 153.305 C 112.000 153.010,112.810 151.002,113.800 148.842 C 115.834 144.405,115.835 144.400,114.957 144.400 C 114.545 144.400,114.399 144.619,114.549 145.010 M110.678 145.056 C 110.304 145.429,110.755 146.000,111.424 146.000 C 111.741 146.000,112.000 145.730,112.000 145.400 C 112.000 144.798,111.156 144.578,110.678 145.056 M107.600 146.200 C 107.600 146.530,107.870 146.800,108.200 146.800 C 108.530 146.800,108.800 146.530,108.800 146.200 C 108.800 145.870,108.530 145.600,108.200 145.600 C 107.870 145.600,107.600 145.870,107.600 146.200 M105.200 147.000 C 105.200 147.330,105.470 147.600,105.800 147.600 C 106.130 147.600,106.400 147.330,106.400 147.000 C 106.400 146.670,106.130 146.400,105.800 146.400 C 105.470 146.400,105.200 146.670,105.200 147.000 M102.678 147.456 C 102.304 147.829,102.755 148.400,103.424 148.400 C 103.741 148.400,104.000 148.130,104.000 147.800 C 104.000 147.198,103.156 146.978,102.678 147.456 M98.892 149.275 C 99.139 150.017,100.000 150.140,100.000 149.433 C 100.000 149.085,99.715 148.800,99.367 148.800 C 99.018 148.800,98.805 149.014,98.892 149.275 M97.200 150.000 C 97.200 150.220,97.470 150.400,97.800 150.400 C 98.130 150.400,98.400 150.220,98.400 150.000 C 98.400 149.780,98.130 149.600,97.800 149.600 C 97.470 149.600,97.200 149.780,97.200 150.000 M95.600 150.757 C 95.600 150.954,95.870 151.218,96.200 151.345 C 96.565 151.485,96.800 151.345,96.800 150.987 C 96.800 150.664,96.530 150.400,96.200 150.400 C 95.870 150.400,95.600 150.561,95.600 150.757 M94.000 151.600 C 94.000 151.820,93.640 152.000,93.200 152.000 C 92.328 152.000,92.131 152.586,92.853 153.033 C 93.102 153.186,93.471 153.017,93.673 152.656 C 93.875 152.295,94.301 152.000,94.620 152.000 C 94.939 152.000,95.200 151.820,95.200 151.600 C 95.200 151.380,94.930 151.200,94.600 151.200 C 94.270 151.200,94.000 151.380,94.000 151.600 M88.460 155.042 C 88.162 155.378,88.012 155.745,88.125 155.859 C 88.419 156.153,90.000 155.248,90.000 154.786 C 90.000 154.199,89.068 154.354,88.460 155.042 M82.877 159.630 C 82.956 159.867,83.191 160.060,83.400 160.060 C 83.609 160.060,83.844 159.867,83.923 159.630 C 84.002 159.394,83.767 159.200,83.400 159.200 C 83.033 159.200,82.798 159.394,82.877 159.630 " stroke="none" fill="#f9e7b8" fill-rule="evenodd"></path><path id="path4" d="M48.779 131.332 C 46.659 132.303,43.457 136.000,44.736 136.000 C 44.934 136.000,44.962 136.714,44.798 137.609 C 44.637 138.493,44.664 139.316,44.859 139.436 C 45.054 139.557,45.117 139.810,45.000 140.000 C 44.883 140.190,44.973 140.460,45.200 140.600 C 45.427 140.740,45.510 141.022,45.383 141.227 C 45.116 141.660,56.442 153.200,57.134 153.200 C 57.391 153.200,57.600 153.383,57.600 153.606 C 57.600 153.830,58.154 154.505,58.831 155.106 C 60.422 156.520,61.304 157.398,64.071 160.323 C 65.320 161.644,66.445 162.621,66.571 162.496 C 66.697 162.370,66.800 162.468,66.800 162.715 C 66.800 163.274,68.692 165.200,69.242 165.200 C 69.465 165.200,69.570 165.335,69.476 165.500 C 69.382 165.665,69.732 166.211,70.253 166.714 C 70.774 167.217,71.200 167.519,71.200 167.386 C 71.200 166.945,72.239 168.184,72.544 168.989 C 72.789 169.635,72.907 169.674,73.197 169.205 C 73.500 168.715,73.656 168.727,74.276 169.288 C 74.675 169.649,75.496 170.132,76.101 170.362 C 77.421 170.864,77.511 171.822,76.435 173.932 C 75.080 176.588,72.536 185.181,71.883 189.310 C 71.657 190.735,72.220 191.089,72.838 189.911 C 73.736 188.199,80.063 182.386,83.334 180.268 C 87.860 177.337,93.260 174.800,94.972 174.800 C 95.511 174.800,96.053 174.638,96.175 174.440 C 96.488 173.933,99.589 173.267,103.755 172.812 C 107.763 172.374,107.965 172.283,107.131 171.302 C 105.998 169.972,104.099 163.662,103.322 158.651 L 103.082 157.103 101.241 157.329 C 98.665 157.645,91.960 159.646,88.458 161.142 C 85.225 162.524,84.552 162.647,84.294 161.900 C 84.017 161.099,85.228 158.920,86.256 158.370 C 87.194 157.868,87.564 156.800,86.800 156.800 C 86.580 156.800,86.400 156.980,86.400 157.200 C 86.400 157.420,86.117 157.600,85.771 157.600 C 85.426 157.600,84.873 157.870,84.543 158.200 C 84.213 158.530,83.615 158.800,83.214 158.800 C 82.385 158.800,79.895 156.638,80.281 156.253 C 80.420 156.114,80.223 156.000,79.843 156.000 C 79.463 156.000,79.264 155.820,79.400 155.600 C 79.536 155.380,79.444 155.200,79.195 155.200 C 78.611 155.200,77.600 154.189,77.600 153.605 C 77.600 153.356,77.465 153.230,77.300 153.324 C 77.135 153.418,76.589 153.068,76.086 152.547 C 75.583 152.026,75.242 151.600,75.328 151.600 C 75.555 151.600,64.190 140.210,61.259 137.500 C 59.891 136.235,58.876 135.200,59.004 135.200 C 59.132 135.200,58.786 134.750,58.236 134.200 C 57.686 133.650,57.060 133.200,56.845 133.200 C 56.630 133.200,56.341 132.844,56.203 132.408 C 56.064 131.973,55.827 131.642,55.676 131.673 C 55.524 131.704,54.893 131.520,54.274 131.265 C 52.864 130.683,50.123 130.717,48.779 131.332 M114.024 145.600 C 114.024 146.742,114.099 146.871,114.432 146.300 C 114.709 145.825,114.709 145.375,114.432 144.900 C 114.099 144.329,114.024 144.458,114.024 145.600 M112.000 145.447 C 112.000 145.911,111.758 146.030,111.142 145.869 C 110.501 145.701,110.400 145.760,110.740 146.100 C 111.052 146.412,111.533 146.437,112.265 146.178 C 113.599 145.707,113.972 144.800,112.833 144.800 C 112.333 144.800,112.000 145.058,112.000 145.447 M108.800 146.200 C 108.800 146.530,108.530 146.800,108.200 146.800 C 107.870 146.800,107.600 146.620,107.600 146.400 C 107.600 145.667,106.728 145.988,106.516 146.800 C 106.307 147.599,105.200 147.946,105.200 147.213 C 105.200 146.999,104.930 146.929,104.600 147.055 C 104.270 147.182,104.000 147.557,104.000 147.889 C 104.000 148.309,103.739 148.425,103.148 148.270 C 102.676 148.147,102.050 148.293,101.745 148.598 C 101.016 149.327,101.727 149.749,102.784 149.214 C 103.233 148.986,103.958 148.620,104.395 148.400 C 104.832 148.180,105.557 148.000,106.007 148.000 C 106.457 148.000,106.928 147.731,107.054 147.402 C 107.181 147.074,107.455 146.911,107.665 147.040 C 108.306 147.436,110.000 146.821,110.000 146.192 C 110.000 145.867,109.730 145.600,109.400 145.600 C 109.070 145.600,108.800 145.870,108.800 146.200 M113.112 148.100 C 112.376 149.243,111.536 151.669,111.789 151.922 C 111.895 152.028,112.088 151.774,112.218 151.357 C 112.348 150.941,112.800 149.835,113.222 148.900 C 114.063 147.037,114.017 146.696,113.112 148.100 M100.000 149.400 C 100.000 150.123,99.533 150.173,98.880 149.520 C 98.507 149.147,98.400 149.201,98.400 149.767 C 98.400 150.296,98.183 150.437,97.600 150.284 C 97.003 150.128,96.800 150.272,96.800 150.852 C 96.800 151.504,96.672 151.560,96.000 151.200 C 95.361 150.858,95.200 150.896,95.200 151.386 C 95.200 151.724,94.924 152.000,94.587 152.000 C 94.251 152.000,93.869 152.275,93.740 152.612 C 93.594 152.992,93.226 153.135,92.770 152.990 C 92.286 152.837,91.858 153.039,91.521 153.578 C 91.238 154.030,90.871 154.400,90.704 154.400 C 90.537 154.400,90.040 154.760,89.600 155.200 C 89.160 155.640,88.440 156.000,88.000 156.000 C 87.218 156.000,86.958 156.424,87.442 156.909 C 87.788 157.255,91.584 154.697,91.593 154.113 C 91.597 153.844,91.853 153.722,92.163 153.841 C 92.472 153.960,93.417 153.635,94.263 153.120 C 95.108 152.605,96.925 151.659,98.300 151.018 C 100.472 150.006,101.614 148.800,100.400 148.800 C 100.180 148.800,100.000 149.070,100.000 149.400 M110.585 154.185 C 110.200 155.193,109.977 156.110,110.090 156.223 C 110.203 156.336,110.578 155.571,110.923 154.523 C 111.736 152.053,111.492 151.809,110.585 154.185 M83.923 159.630 C 83.844 159.867,83.609 160.060,83.400 160.060 C 83.191 160.060,82.956 159.867,82.877 159.630 C 82.798 159.394,83.033 159.200,83.400 159.200 C 83.767 159.200,84.002 159.394,83.923 159.630 M107.867 166.667 C 107.720 166.813,107.623 167.668,107.650 168.567 L 107.700 170.200 107.999 168.400 C 108.316 166.496,108.296 166.238,107.867 166.667 M58.893 198.400 C 58.893 199.170,58.975 199.485,59.076 199.100 C 59.176 198.715,59.176 198.085,59.076 197.700 C 58.975 197.315,58.893 197.630,58.893 198.400 M24.800 207.200 C 24.800 207.420,24.496 207.600,24.125 207.600 C 23.221 207.600,20.806 209.272,20.803 209.900 C 20.801 210.175,20.654 210.400,20.476 210.400 C 19.703 210.400,19.087 214.445,19.615 216.046 C 19.897 216.901,20.279 217.600,20.464 217.600 C 20.649 217.600,20.800 217.839,20.800 218.130 C 20.800 219.428,23.081 220.661,26.000 220.942 C 26.330 220.974,26.735 221.180,26.900 221.400 C 27.100 221.667,27.300 221.666,27.500 221.399 C 27.689 221.146,33.217 220.961,42.400 220.900 C 62.603 220.766,62.814 220.696,63.427 213.921 C 63.753 210.328,62.827 208.869,59.680 208.022 C 58.775 207.778,57.926 207.403,57.793 207.189 C 57.460 206.649,24.800 206.660,24.800 207.200 M58.901 229.400 C 58.905 230.280,58.987 230.593,59.083 230.095 C 59.179 229.598,59.175 228.878,59.075 228.495 C 58.975 228.113,58.896 228.520,58.901 229.400 M74.694 258.253 C 73.646 258.798,72.082 259.935,71.220 260.781 C 70.357 261.626,69.550 262.216,69.426 262.092 C 69.302 261.968,69.200 262.063,69.200 262.303 C 69.200 262.729,66.932 265.200,66.541 265.200 C 66.163 265.200,65.200 266.345,65.200 266.795 C 65.200 267.044,65.053 267.156,64.873 267.045 C 64.694 266.934,64.234 267.374,63.851 268.022 C 63.468 268.670,62.865 269.200,62.511 269.200 C 62.156 269.200,61.978 269.311,62.114 269.448 C 62.436 269.769,61.405 270.800,60.762 270.800 C 60.490 270.800,60.376 270.909,60.509 271.043 C 60.793 271.326,55.345 276.800,54.780 276.800 C 54.571 276.800,54.400 276.993,54.400 277.229 C 54.400 277.821,53.351 278.818,53.048 278.514 C 52.911 278.378,52.800 278.469,52.800 278.716 C 52.800 278.964,51.270 280.686,49.400 282.543 C 47.530 284.400,46.000 286.131,46.000 286.389 C 46.000 286.646,45.730 287.127,45.400 287.457 C 44.318 288.539,44.873 294.000,46.064 294.000 C 46.249 294.000,46.400 294.242,46.400 294.538 C 46.400 295.319,47.729 296.400,48.689 296.400 C 49.143 296.400,49.615 296.661,49.737 296.981 C 49.870 297.326,50.314 297.494,50.831 297.394 C 51.310 297.302,52.398 297.185,53.251 297.135 C 54.103 297.085,54.800 296.888,54.800 296.698 C 54.800 296.508,54.980 296.464,55.200 296.600 C 55.420 296.736,55.600 296.609,55.600 296.318 C 55.600 296.027,56.320 295.344,57.200 294.800 C 58.080 294.256,58.800 293.675,58.800 293.508 C 58.800 293.341,60.532 291.475,62.648 289.362 C 64.765 287.249,66.357 285.746,66.187 286.022 C 65.986 286.347,66.039 286.423,66.338 286.238 C 66.592 286.081,66.800 285.683,66.800 285.353 C 66.800 285.023,66.980 284.864,67.200 285.000 C 67.420 285.136,67.600 284.967,67.600 284.624 C 67.600 284.281,67.881 284.000,68.224 284.000 C 68.567 284.000,68.736 283.820,68.600 283.600 C 68.464 283.380,68.541 283.200,68.770 283.200 C 69.180 283.200,72.701 279.653,75.221 276.700 C 75.926 275.875,76.664 275.200,76.861 275.200 C 77.059 275.200,78.031 274.390,79.021 273.400 C 80.011 272.410,80.742 271.600,80.645 271.600 C 80.548 271.600,81.038 271.008,81.734 270.285 C 82.430 269.561,83.163 269.049,83.362 269.147 C 83.561 269.244,83.599 269.121,83.446 268.874 C 83.293 268.627,83.536 267.620,83.984 266.635 C 86.919 260.193,81.088 254.932,74.694 258.253 M108.341 262.836 C 108.131 262.966,109.093 263.573,110.480 264.184 C 111.866 264.796,113.540 265.536,114.200 265.828 C 115.847 266.558,122.205 268.616,124.400 269.130 C 128.866 270.174,130.124 270.372,135.256 270.839 C 141.108 271.371,148.530 270.940,154.000 269.750 C 155.430 269.439,157.140 269.078,157.800 268.948 C 159.612 268.591,165.928 266.421,168.274 265.348 C 169.415 264.827,170.510 264.400,170.706 264.400 C 171.011 264.400,173.000 268.158,173.000 268.734 C 173.000 269.025,176.774 272.801,178.355 274.093 C 179.100 274.702,179.580 275.200,179.420 275.200 C 179.261 275.200,181.158 277.180,183.636 279.600 C 186.114 282.020,188.269 284.000,188.423 284.000 C 188.578 284.000,189.211 284.675,189.830 285.500 C 190.449 286.325,191.208 287.154,191.517 287.342 C 191.825 287.529,192.465 288.141,192.939 288.700 C 194.191 290.179,195.371 291.318,196.345 291.988 C 196.815 292.312,197.200 292.709,197.200 292.870 C 197.200 293.688,200.724 296.400,201.786 296.400 C 202.124 296.400,202.400 296.580,202.400 296.800 C 202.400 297.020,203.300 297.200,204.400 297.200 C 205.500 297.200,206.400 297.020,206.400 296.800 C 206.400 296.580,206.760 296.400,207.200 296.400 C 207.640 296.400,208.000 296.259,208.000 296.086 C 208.000 295.914,208.540 295.454,209.200 295.064 C 210.013 294.584,210.400 294.039,210.400 293.377 C 210.400 292.840,210.580 292.400,210.800 292.400 C 211.020 292.400,211.200 292.145,211.200 291.833 C 211.200 291.522,211.425 291.176,211.700 291.065 C 212.100 290.904,212.100 290.857,211.700 290.832 C 211.425 290.814,211.200 290.609,211.200 290.376 C 211.200 290.143,211.398 290.075,211.640 290.225 C 211.960 290.422,211.960 290.272,211.640 289.675 C 211.398 289.222,211.200 288.515,211.200 288.103 C 211.200 286.869,189.666 264.560,187.079 263.114 C 186.159 262.601,109.163 262.329,108.341 262.836 M152.782 263.422 C 151.459 265.015,148.801 265.096,147.983 263.567 C 147.595 262.844,147.736 262.800,150.435 262.800 C 152.979 262.800,153.240 262.869,152.782 263.422 M124.955 278.338 C 123.449 279.285,122.000 281.234,122.000 282.313 C 122.000 282.747,121.730 283.326,121.400 283.600 C 120.706 284.176,120.483 315.805,121.164 317.105 C 121.364 317.487,121.810 318.430,122.155 319.200 C 122.500 319.970,122.792 320.420,122.804 320.200 C 122.816 319.980,123.045 320.072,123.313 320.406 C 125.116 322.647,129.214 323.129,131.762 321.400 C 132.572 320.850,133.408 320.400,133.618 320.400 C 133.828 320.400,134.000 320.130,134.000 319.800 C 134.000 319.470,134.180 319.200,134.400 319.200 C 134.620 319.200,134.800 318.870,134.800 318.467 C 134.800 318.063,134.904 317.629,135.032 317.501 C 135.908 316.625,135.366 285.711,134.428 283.110 C 132.662 278.207,128.499 276.110,124.955 278.338 " stroke="none" fill="#fdd987" fill-rule="evenodd"></path><path id="path5" d="M61.229 137.500 C 64.553 140.611,65.194 140.735,62.063 137.662 C 60.684 136.308,59.379 135.200,59.163 135.200 C 58.948 135.200,59.877 136.235,61.229 137.500 M44.243 136.633 C 43.884 137.568,43.948 138.800,44.356 138.800 C 44.552 138.800,44.786 138.170,44.876 137.400 C 45.044 135.960,44.673 135.510,44.243 136.633 M44.406 139.876 C 44.415 140.886,45.033 141.794,45.357 141.270 C 45.498 141.042,45.427 140.740,45.200 140.600 C 44.973 140.460,44.883 140.190,45.000 140.000 C 45.117 139.810,45.030 139.542,44.807 139.404 C 44.583 139.266,44.403 139.478,44.406 139.876 M113.664 144.909 C 113.570 145.953,111.750 146.686,110.770 146.074 C 110.139 145.680,110.000 145.701,110.000 146.189 C 110.000 146.821,108.307 147.437,107.665 147.040 C 107.455 146.911,107.181 147.074,107.054 147.402 C 106.928 147.731,106.457 148.000,106.007 148.000 C 105.557 148.000,104.832 148.180,104.395 148.400 C 103.958 148.620,103.242 148.980,102.805 149.200 C 101.712 149.751,101.624 149.723,101.212 148.700 C 100.858 147.817,100.850 147.820,100.825 148.841 C 100.804 149.726,100.397 150.070,98.100 151.143 C 96.615 151.837,94.710 152.808,93.866 153.300 C 92.340 154.192,92.330 154.192,91.740 153.398 C 91.168 152.628,91.156 152.635,91.387 153.600 C 91.617 154.560,88.477 157.226,87.500 156.900 C 87.335 156.845,87.200 157.040,87.200 157.332 C 87.200 157.625,86.775 158.092,86.256 158.370 C 85.228 158.920,84.017 161.099,84.294 161.900 C 84.552 162.647,85.225 162.524,88.458 161.142 C 91.960 159.646,98.665 157.645,101.241 157.329 L 103.082 157.103 103.322 158.651 C 104.607 166.942,107.600 174.397,107.600 169.309 C 107.600 167.955,107.796 166.726,108.036 166.578 C 108.294 166.418,108.372 165.776,108.227 165.004 C 108.092 164.286,108.200 163.182,108.466 162.549 C 108.732 161.917,108.981 160.806,109.018 160.081 C 109.055 159.355,109.267 158.365,109.490 157.881 C 109.712 157.396,110.080 156.280,110.309 155.400 C 110.958 152.900,112.469 149.110,113.298 147.902 C 113.783 147.195,113.994 146.342,113.890 145.502 C 113.801 144.786,113.699 144.519,113.664 144.909 M70.000 146.154 C 70.770 146.897,71.477 147.434,71.571 147.348 C 71.828 147.113,69.515 144.800,69.025 144.802 C 68.791 144.803,69.230 145.412,70.000 146.154 M50.400 147.325 C 50.400 147.394,50.940 147.968,51.600 148.600 C 53.055 149.994,53.217 149.654,51.782 148.218 C 50.852 147.288,50.400 146.996,50.400 147.325 M72.000 147.881 C 72.000 148.343,73.135 149.409,73.358 149.157 C 73.434 149.071,73.160 148.654,72.748 148.230 C 72.337 147.807,72.000 147.649,72.000 147.881 M74.202 150.402 C 74.602 150.844,75.011 151.122,75.112 151.021 C 75.328 150.805,74.188 149.600,73.767 149.600 C 73.607 149.600,73.803 149.961,74.202 150.402 M75.473 151.506 C 75.381 151.668,75.723 152.202,76.233 152.694 C 76.743 153.186,77.235 153.456,77.327 153.294 C 77.419 153.132,77.077 152.598,76.567 152.106 C 76.057 151.614,75.565 151.344,75.473 151.506 M56.590 153.448 C 56.947 153.804,57.359 153.974,57.507 153.826 C 57.656 153.678,57.512 153.389,57.188 153.184 C 56.243 152.587,55.887 152.744,56.590 153.448 M77.600 153.829 C 77.600 154.253,78.836 155.297,79.067 155.067 C 79.192 154.941,79.017 154.560,78.676 154.219 C 78.041 153.584,77.600 153.424,77.600 153.829 M59.871 156.694 C 60.272 157.076,60.915 157.734,61.300 158.155 C 61.685 158.577,62.000 158.723,62.000 158.479 C 62.000 157.922,60.104 156.000,59.553 156.000 C 59.328 156.000,59.471 156.312,59.871 156.694 M80.262 156.272 C 79.976 156.557,82.319 158.800,82.904 158.800 C 83.134 158.800,82.977 158.485,82.555 158.100 C 82.134 157.715,81.497 157.094,81.142 156.719 C 80.786 156.345,80.390 156.143,80.262 156.272 M62.400 158.935 C 62.400 159.095,63.030 159.857,63.800 160.627 C 64.570 161.397,65.200 161.876,65.200 161.692 C 65.200 161.508,64.570 160.746,63.800 160.000 C 63.030 159.254,62.400 158.774,62.400 158.935 M71.067 167.467 C 70.941 167.592,71.108 167.965,71.438 168.295 C 71.768 168.625,72.141 168.792,72.267 168.667 C 72.392 168.541,72.225 168.168,71.895 167.838 C 71.565 167.508,71.192 167.341,71.067 167.467 M19.467 211.467 C 19.320 211.613,19.211 212.108,19.225 212.567 C 19.249 213.333,19.282 213.323,19.634 212.442 C 20.026 211.463,19.944 210.989,19.467 211.467 M23.200 220.978 C 24.254 221.604,26.800 221.821,26.800 221.286 C 26.800 221.113,26.485 220.955,26.100 220.936 C 25.715 220.916,24.680 220.784,23.800 220.642 C 22.244 220.391,22.227 220.400,23.200 220.978 M27.600 221.300 C 27.600 221.465,34.350 221.600,42.600 221.600 C 51.772 221.600,57.600 221.453,57.600 221.221 C 57.600 220.988,51.828 220.873,42.600 220.921 C 34.350 220.965,27.600 221.135,27.600 221.300 M147.983 263.567 C 148.801 265.096,151.459 265.015,152.782 263.422 C 153.240 262.869,152.979 262.800,150.435 262.800 C 147.736 262.800,147.595 262.844,147.983 263.567 M188.400 263.743 C 188.400 263.927,191.370 267.036,195.000 270.654 C 198.630 274.271,201.600 277.087,201.600 276.911 C 201.600 276.735,198.630 273.625,195.000 270.000 C 191.370 266.375,188.400 263.559,188.400 263.743 M81.734 270.300 C 81.038 271.015,80.641 271.600,80.852 271.600 C 81.372 271.600,83.292 269.651,83.130 269.289 C 83.058 269.130,82.430 269.585,81.734 270.300 M174.800 270.967 C 174.800 271.388,176.005 272.528,176.221 272.312 C 176.322 272.211,176.044 271.802,175.602 271.402 C 175.161 271.003,174.800 270.807,174.800 270.967 M177.615 273.984 C 178.377 274.635,179.160 275.175,179.355 275.184 C 179.550 275.193,179.031 274.660,178.200 274.000 C 176.251 272.451,175.808 272.439,177.615 273.984 M75.802 275.998 C 75.403 276.439,75.207 276.800,75.367 276.800 C 75.788 276.800,76.928 275.595,76.712 275.379 C 76.611 275.278,76.202 275.556,75.802 275.998 M202.425 277.796 C 203.368 279.102,209.600 285.293,209.600 284.925 C 209.600 284.737,207.856 282.878,205.725 280.792 C 203.593 278.706,202.108 277.358,202.425 277.796 M100.000 279.600 C 100.000 279.820,100.360 280.000,100.800 280.000 C 101.240 280.000,101.600 279.820,101.600 279.600 C 101.600 279.380,101.240 279.200,100.800 279.200 C 100.360 279.200,100.000 279.380,100.000 279.600 M186.089 282.542 C 186.810 283.280,187.477 283.818,187.571 283.738 C 187.802 283.540,185.537 281.200,185.114 281.200 C 184.929 281.200,185.367 281.804,186.089 282.542 M135.111 287.134 C 135.299 291.794,135.485 292.218,135.546 288.124 C 135.575 286.102,135.462 284.362,135.294 284.258 C 135.126 284.154,135.043 285.448,135.111 287.134 M188.000 284.424 C 188.000 284.657,188.180 284.736,188.400 284.600 C 188.620 284.464,188.800 284.552,188.800 284.795 C 188.800 285.038,189.250 285.686,189.800 286.236 C 191.101 287.538,191.078 287.111,189.753 285.373 C 188.708 284.004,188.000 283.620,188.000 284.424 M46.100 285.423 C 45.825 285.722,45.601 286.289,45.602 286.683 C 45.604 287.179,45.791 287.043,46.210 286.240 C 46.889 284.937,46.846 284.614,46.100 285.423 M63.306 288.636 C 61.714 290.266,60.544 291.596,60.706 291.590 C 61.211 291.573,66.000 286.883,66.000 286.406 C 66.000 286.157,66.208 286.081,66.462 286.238 C 66.748 286.415,66.815 286.348,66.638 286.062 C 66.283 285.487,66.680 285.180,63.306 288.636 M191.599 287.836 C 192.282 288.707,193.645 290.000,193.880 290.000 C 194.225 290.000,192.549 288.045,191.800 287.574 C 191.051 287.104,191.038 287.121,191.599 287.836 M211.319 289.401 C 211.341 290.170,211.465 290.800,211.594 290.800 C 211.989 290.800,212.034 288.468,211.644 288.227 C 211.443 288.103,211.297 288.631,211.319 289.401 M195.806 292.242 C 196.379 292.816,196.956 293.177,197.088 293.045 C 197.357 292.776,195.676 291.200,195.121 291.200 C 194.924 291.200,195.233 291.669,195.806 292.242 M210.400 293.200 C 210.400 293.640,210.580 294.000,210.800 294.000 C 211.020 294.000,211.200 293.640,211.200 293.200 C 211.200 292.760,211.020 292.400,210.800 292.400 C 210.580 292.400,210.400 292.760,210.400 293.200 M57.400 294.640 C 56.960 294.978,56.331 295.409,56.003 295.597 C 55.675 295.786,55.513 296.046,55.642 296.176 C 55.772 296.306,56.491 295.872,57.239 295.212 C 58.667 293.954,58.770 293.588,57.400 294.640 M48.000 296.571 C 48.000 296.731,50.362 298.000,50.661 298.000 C 50.738 298.000,50.800 297.809,50.800 297.576 C 50.800 297.343,50.619 297.265,50.397 297.402 C 50.176 297.539,49.886 297.369,49.754 297.025 C 49.549 296.489,48.000 296.088,48.000 296.571 M51.200 297.600 C 51.200 297.820,51.751 298.000,52.424 298.000 C 53.137 298.000,53.544 297.833,53.400 297.600 C 53.264 297.380,52.713 297.200,52.176 297.200 C 51.639 297.200,51.200 297.380,51.200 297.600 M135.365 309.800 C 135.366 313.760,135.426 315.326,135.498 313.280 C 135.571 311.234,135.571 307.994,135.498 306.080 C 135.424 304.166,135.365 305.840,135.365 309.800 M122.686 320.248 C 122.370 320.563,123.494 321.708,123.946 321.532 C 124.132 321.459,123.980 321.085,123.609 320.700 C 123.237 320.315,122.822 320.112,122.686 320.248 M132.400 321.000 C 132.122 321.335,132.079 321.600,132.302 321.600 C 132.522 321.600,132.926 321.330,133.200 321.000 C 133.478 320.665,133.521 320.400,133.298 320.400 C 133.078 320.400,132.674 320.670,132.400 321.000 " stroke="none" fill="#faca7c" fill-rule="evenodd"></path></g></svg>