<svg id="Layer_1" enable-background="new 0 0 56.689 56.689" height="512" viewBox="0 0 56.689 56.689" width="512" xmlns="http://www.w3.org/2000/svg"><g><path d="m47.229 12.976v24.961c0 .935-.364 1.814-1.025 2.476s-1.539 1.024-2.476 1.024c-1.869.001-3.499-1.629-3.499-3.499l-.002-16.525-24.788 24.785c-1.364 1.364-3.586 1.364-4.949 0-1.365-1.364-1.365-3.586 0-4.95l24.784-24.785-16.524.001c-1.871 0-3.5-1.63-3.5-3.5-.001-1.929 1.569-3.499 3.5-3.5l24.975-.001c.173-.005 1.843-.021 2.857 1.33.673.899.663 1.877.647 2.183zm-3.506-1.513-24.975.001c-.827.001-1.5.674-1.5 1.5 0 .798.697 1.5 1.5 1.5l21.355-.001-28.199 28.199c-.584.585-.584 1.536 0 2.121.585.585 1.537.585 2.121 0l28.198-28.198v21.355c0 .801.7 1.501 1.5 1.5.4 0 .777-.156 1.061-.439s.439-.66.44-1.062l-.001-24.965c.002-.129-.006-.571-.329-.967-.435-.533-1.081-.544-1.171-.544z"/></g></svg>