<svg id="Layer_1" enable-background="new 0 0 56.689 56.689" height="512" viewBox="0 0 56.689 56.689" width="512" xmlns="http://www.w3.org/2000/svg"><g><path d="m12.976 9.464h24.961c.935 0 1.814.364 2.476 1.025s1.024 1.539 1.024 2.476c.001 1.869-1.629 3.499-3.499 3.499l-16.525.002 24.785 24.784c1.364 1.365 1.364 3.587 0 4.95-1.364 1.365-3.586 1.365-4.95 0l-24.785-24.784.001 16.524c0 1.871-1.63 3.5-3.5 3.5-1.929.001-3.499-1.569-3.5-3.5l-.001-24.974c.014-.316.098-1.355.907-2.27 1.002-1.136 2.356-1.221 2.606-1.232zm-1.513 3.503.001 24.975c.001.827.674 1.5 1.5 1.5.798 0 1.5-.697 1.5-1.5l-.001-21.355 28.199 28.199c.585.584 1.536.584 2.121 0 .585-.585.585-1.537 0-2.121l-28.198-28.198h21.355c.801 0 1.501-.7 1.5-1.5 0-.4-.156-.777-.439-1.061s-.66-.439-1.062-.44l-24.965.001c-.087-.002-.735-.003-1.175.525-.333.399-.339.851-.336.975z"/></g></svg>