<svg id="Layer_1" enable-background="new 0 0 56.689 56.689" height="512" viewBox="0 0 56.689 56.689" width="512" xmlns="http://www.w3.org/2000/svg"><g><path d="m43.714 47.226h-24.96c-.935 0-1.814-.364-2.476-1.025s-1.024-1.539-1.025-2.476c-.001-1.869 1.629-3.499 3.5-3.499l16.524-.002-24.785-24.785c-1.363-1.364-1.363-3.586 0-4.949 1.364-1.365 3.585-1.365 4.95 0l24.785 24.784-.001-16.524c0-1.872 1.63-3.5 3.5-3.5 1.929 0 3.499 1.57 3.5 3.5l.001 24.975c.011.261.029 1.376-.796 2.339-1.032 1.203-2.525 1.17-2.717 1.162zm1.513-3.503-.001-24.975c-.001-.827-.674-1.5-1.5-1.5-.798 0-1.5.698-1.5 1.5l.001 21.355-28.198-28.199c-.585-.584-1.536-.584-2.121 0-.585.585-.585 1.537 0 2.122l28.197 28.197h-21.354c-.801 0-1.5.7-1.5 1.5 0 .4.156.777.439 1.061.284.284.66.439 1.062.44l24.964-.001c.063.007.731.066 1.186-.455.38-.435.334-.956.325-1.045z"/></g></svg>