<svg id="Layer_1" enable-background="new 0 0 56.689 56.689" height="512" viewBox="0 0 56.689 56.689" width="512" xmlns="http://www.w3.org/2000/svg"><g><path d="m9.465 43.714v-24.96c0-.935.364-1.814 1.025-2.476s1.539-1.024 2.476-1.025c1.869-.001 3.499 1.629 3.499 3.5l.002 16.525 24.784-24.785c1.364-1.365 3.586-1.365 4.949-.001 1.365 1.364 1.365 3.585 0 4.95l-24.783 24.785 16.524-.001c1.871 0 3.5 1.63 3.5 3.5.001 1.929-1.569 3.499-3.5 3.5l-24.974.001c-.22.001-1.558-.013-2.573-1.102-.917-.983-.932-2.157-.929-2.411zm3.503 1.513 24.974-.001c.827-.001 1.5-.674 1.5-1.5 0-.798-.697-1.5-1.5-1.5l-21.354.001 28.199-28.199c.584-.585.584-1.536 0-2.121-.585-.585-1.537-.585-2.121 0l-28.198 28.198v-21.355c0-.801-.7-1.5-1.5-1.5-.4 0-.777.156-1.061.439-.284.284-.439.66-.44 1.062l.001 24.965c-.006.081-.04.676.429 1.124.439.42.983.393 1.071.387z"/></g></svg>