<svg id="svg" version="1.1" xmlns="http://www.w3.org/2000/svg" xmlns:xlink="http://www.w3.org/1999/xlink" width="400" height="400" viewBox="0, 0, 400,400"><g id="svgg"><path id="path0" d="M162.800 97.600 C 162.800 97.820,163.171 98.000,163.624 98.000 C 164.077 98.000,164.336 97.820,164.200 97.600 C 164.064 97.380,163.693 97.200,163.376 97.200 C 163.059 97.200,162.800 97.380,162.800 97.600 M170.000 97.618 C 169.562 97.915,169.724 97.952,170.600 97.756 C 172.071 97.427,172.390 97.198,171.367 97.206 C 170.945 97.209,170.330 97.395,170.000 97.618 M157.600 98.345 C 157.600 98.534,158.050 98.603,158.600 98.498 C 159.150 98.393,159.600 98.238,159.600 98.153 C 159.600 98.069,159.150 98.000,158.600 98.000 C 158.050 98.000,157.600 98.155,157.600 98.345 M148.400 100.018 C 148.400 100.283,148.950 100.337,149.900 100.165 C 151.976 99.790,152.032 99.600,150.067 99.600 C 149.150 99.600,148.400 99.788,148.400 100.018 M146.000 100.800 C 146.000 101.020,146.405 101.197,146.900 101.194 C 147.628 101.189,147.685 101.114,147.200 100.800 C 146.424 100.299,146.000 100.299,146.000 100.800 M178.224 104.213 C 177.796 104.536,177.156 104.800,176.800 104.800 C 176.444 104.800,175.804 105.066,175.376 105.392 C 174.713 105.898,174.873 105.894,176.475 105.363 C 177.507 105.021,178.564 104.485,178.824 104.171 C 179.424 103.448,179.215 103.463,178.224 104.213 M158.000 115.205 C 157.450 115.369,156.190 115.726,155.200 115.998 C 151.316 117.067,145.584 119.279,140.400 121.708 C 110.258 135.835,88.653 165.127,83.245 199.200 C 79.041 225.684,85.400 252.577,101.121 274.800 C 102.133 276.230,102.614 277.130,102.190 276.800 C 97.893 273.450,91.003 265.243,85.820 257.300 C 84.779 255.705,83.809 254.403,83.664 254.406 C 83.150 254.418,82.191 255.188,82.682 255.194 C 83.452 255.204,85.272 257.235,85.044 257.831 C 84.929 258.129,85.524 259.054,86.365 259.887 C 87.206 260.719,88.197 261.994,88.568 262.721 C 88.939 263.447,89.502 264.141,89.821 264.263 C 90.139 264.386,90.400 264.736,90.400 265.043 C 90.400 265.349,90.541 265.600,90.714 265.600 C 90.886 265.600,91.334 266.095,91.709 266.700 C 92.084 267.305,93.207 268.694,94.205 269.786 C 95.203 270.878,95.927 272.013,95.814 272.307 C 95.702 272.601,95.787 272.732,96.005 272.597 C 96.222 272.463,96.400 272.543,96.400 272.776 C 96.400 273.009,96.615 273.200,96.878 273.200 C 97.570 273.200,99.600 275.245,99.600 275.942 C 99.600 276.267,99.712 276.421,99.850 276.284 C 99.987 276.146,100.842 276.750,101.750 277.624 C 102.657 278.498,103.832 279.327,104.359 279.465 C 104.886 279.603,107.046 281.096,109.159 282.782 C 114.056 286.691,122.141 292.000,123.195 292.000 C 123.394 292.000,123.131 291.055,122.611 289.900 C 118.991 281.854,120.992 267.470,127.284 256.312 C 129.152 253.001,129.229 253.346,126.500 252.783 C 122.259 251.908,118.624 250.651,115.326 248.919 C 113.525 247.974,111.704 247.200,111.279 247.200 C 110.344 247.200,103.408 240.530,101.712 238.000 C 97.969 232.413,96.201 227.111,95.321 218.837 C 94.237 208.651,101.112 194.216,110.000 188.015 C 110.770 187.478,111.490 186.940,111.600 186.819 C 113.809 184.397,123.608 181.104,129.800 180.704 L 131.400 180.600 131.681 177.000 C 131.836 175.020,132.154 172.590,132.389 171.600 C 132.624 170.610,132.927 169.121,133.062 168.290 C 133.197 167.460,133.464 166.684,133.654 166.567 C 133.844 166.449,134.000 166.001,134.000 165.571 C 134.000 165.141,134.163 164.477,134.363 164.095 C 134.772 163.309,135.735 159.882,135.612 159.645 C 135.568 159.559,135.772 159.337,136.066 159.151 C 136.502 158.874,136.503 158.811,136.073 158.806 C 135.719 158.802,135.634 158.522,135.816 157.951 C 135.964 157.483,136.128 156.898,136.181 156.651 C 136.234 156.403,136.483 155.699,136.734 155.086 C 136.985 154.473,137.166 153.843,137.137 153.686 C 136.998 152.954,137.743 150.000,138.066 150.000 C 138.266 150.000,138.395 149.595,138.353 149.100 C 138.225 147.612,138.380 146.740,138.733 146.959 C 138.917 147.072,139.089 146.948,139.117 146.682 C 139.355 144.414,140.315 141.900,140.823 142.214 C 140.989 142.317,141.031 142.041,140.916 141.601 C 140.799 141.153,140.904 140.800,141.153 140.800 C 141.399 140.800,141.600 140.438,141.600 139.995 C 141.600 139.104,142.231 137.860,143.300 136.645 C 143.685 136.207,144.000 135.523,144.000 135.125 C 144.000 134.726,144.180 134.400,144.400 134.400 C 144.620 134.400,144.800 134.130,144.800 133.800 C 144.800 133.470,145.010 133.200,145.267 133.200 C 145.523 133.200,145.628 133.095,145.500 132.966 C 145.140 132.606,146.490 131.209,146.933 131.482 C 147.148 131.615,147.198 131.521,147.045 131.273 C 146.730 130.763,147.827 128.865,148.893 128.077 C 149.282 127.790,149.600 127.295,149.600 126.977 C 149.600 126.660,149.810 126.400,150.067 126.400 C 150.323 126.400,150.428 126.295,150.300 126.167 C 149.965 125.832,151.329 124.488,151.762 124.725 C 151.961 124.834,152.018 124.753,151.890 124.545 C 151.761 124.337,152.489 123.274,153.508 122.183 C 154.527 121.092,155.320 120.052,155.271 119.870 C 155.221 119.689,155.356 119.649,155.570 119.781 C 155.784 119.914,156.179 119.612,156.446 119.111 C 157.054 117.973,159.098 116.032,159.386 116.319 C 159.504 116.437,159.600 116.244,159.600 115.890 C 159.600 115.025,159.193 114.851,158.000 115.205 M86.087 143.609 C 85.619 144.359,85.641 144.381,86.391 143.913 C 86.836 143.635,87.200 143.271,87.200 143.104 C 87.200 142.526,86.591 142.803,86.087 143.609 M78.650 156.450 C 78.317 158.117,78.640 158.440,79.000 156.800 C 79.152 156.109,79.193 155.459,79.091 155.358 C 78.989 155.256,78.791 155.747,78.650 156.450 M71.092 177.042 C 70.931 177.202,70.800 177.609,70.800 177.947 C 70.800 178.397,70.918 178.442,71.245 178.115 C 71.490 177.870,71.621 177.463,71.537 177.210 C 71.452 176.957,71.252 176.881,71.092 177.042 M68.513 194.155 C 68.528 195.148,68.681 195.874,68.851 195.769 C 69.143 195.588,68.960 192.827,68.635 192.502 C 68.552 192.419,68.497 193.163,68.513 194.155 M69.387 211.000 C 69.284 211.330,69.119 211.861,69.020 212.180 C 68.903 212.557,69.043 212.682,69.420 212.537 C 69.739 212.414,70.000 211.884,70.000 211.357 C 70.000 210.282,69.672 210.090,69.387 211.000 M69.200 218.000 C 69.200 218.440,69.380 218.800,69.600 218.800 C 69.820 218.800,70.000 218.440,70.000 218.000 C 70.000 217.560,69.820 217.200,69.600 217.200 C 69.380 217.200,69.200 217.560,69.200 218.000 M70.273 218.660 C 70.123 218.810,70.000 219.368,70.000 219.900 C 70.000 221.007,70.920 220.946,71.138 219.824 C 71.291 219.034,70.698 218.235,70.273 218.660 M70.800 223.387 C 70.800 224.456,70.938 224.722,71.400 224.545 C 72.037 224.300,72.155 223.669,71.757 222.633 C 71.333 221.529,70.800 221.949,70.800 223.387 M71.607 226.607 C 72.217 227.257,72.287 227.553,71.917 227.923 C 71.548 228.292,71.571 228.401,72.020 228.406 C 72.505 228.411,72.510 228.470,72.049 228.761 C 71.403 229.170,71.789 230.000,72.624 230.000 C 73.330 230.000,73.395 231.464,72.700 231.712 C 72.425 231.810,72.309 232.009,72.443 232.155 C 73.131 232.903,73.894 231.910,73.579 230.675 C 73.400 229.974,73.163 229.040,73.051 228.600 C 72.939 228.160,72.747 227.316,72.623 226.725 C 72.464 225.967,72.165 225.667,71.608 225.709 C 70.823 225.768,70.823 225.773,71.607 226.607 M74.000 234.920 C 74.000 236.704,75.211 238.553,75.778 237.636 C 76.126 237.072,75.554 235.932,75.024 236.136 C 74.705 236.258,74.606 235.939,74.721 235.159 C 74.821 234.472,74.709 234.000,74.445 234.000 C 74.200 234.000,74.000 234.414,74.000 234.920 M75.892 238.242 C 75.731 238.402,75.600 238.809,75.600 239.147 C 75.600 239.597,75.718 239.642,76.045 239.315 C 76.290 239.070,76.421 238.663,76.337 238.410 C 76.252 238.157,76.052 238.081,75.892 238.242 M75.984 240.581 C 76.220 240.866,76.301 241.391,76.164 241.749 C 75.989 242.205,76.137 242.402,76.657 242.406 C 77.151 242.410,77.239 242.514,76.921 242.717 C 76.605 242.917,76.569 243.222,76.815 243.611 C 77.067 244.009,77.190 244.038,77.194 243.700 C 77.197 243.425,77.355 243.200,77.545 243.200 C 77.734 243.200,77.801 243.662,77.693 244.226 C 77.552 244.961,77.734 245.419,78.332 245.837 C 78.841 246.194,79.072 246.667,78.925 247.051 C 78.792 247.397,78.845 247.798,79.042 247.941 C 79.548 248.308,80.800 250.762,80.800 251.386 C 80.800 251.673,81.264 252.212,81.831 252.584 C 82.437 252.981,82.772 253.495,82.644 253.830 C 82.409 254.442,83.011 254.629,83.367 254.054 C 83.599 253.677,81.259 249.085,80.723 248.866 C 80.543 248.792,80.488 248.582,80.601 248.398 C 80.715 248.215,80.529 247.786,80.189 247.447 C 79.850 247.107,79.591 246.777,79.614 246.714 C 79.670 246.563,78.999 244.811,77.968 242.414 C 77.473 241.263,76.813 240.392,76.344 240.270 C 75.733 240.110,75.651 240.180,75.984 240.581 M100.653 241.828 C 102.306 243.581,102.345 244.516,100.831 246.031 C 98.748 248.113,95.200 246.719,95.200 243.819 C 95.200 240.648,98.428 239.470,100.653 241.828 M110.348 247.619 C 111.970 248.530,114.800 252.552,114.800 253.945 C 114.800 259.162,108.161 261.791,103.809 258.297 C 98.350 253.914,104.289 244.213,110.348 247.619 " stroke="none" fill="#fbd68e" fill-rule="evenodd"></path><path id="path1" d="M236.289 108.633 C 236.118 108.810,235.268 108.913,234.399 108.862 C 233.531 108.811,232.321 109.012,231.710 109.309 C 231.100 109.606,230.191 109.818,229.690 109.779 C 229.190 109.740,228.684 109.864,228.567 110.054 C 228.449 110.244,227.733 110.400,226.976 110.400 C 226.219 110.400,225.600 110.580,225.600 110.800 C 225.600 111.020,225.060 111.200,224.400 111.200 C 223.740 111.200,223.200 111.380,223.200 111.600 C 223.200 111.820,222.761 112.000,222.224 112.000 C 221.687 112.000,221.136 112.180,221.000 112.400 C 220.864 112.620,220.403 112.800,219.976 112.800 C 219.549 112.800,219.200 112.980,219.200 113.200 C 219.200 113.420,218.660 113.600,218.000 113.600 C 217.340 113.600,216.800 113.780,216.800 114.000 C 216.800 114.220,216.440 114.400,216.000 114.400 C 215.560 114.400,215.200 114.580,215.200 114.800 C 215.200 115.020,214.855 115.200,214.433 115.200 C 214.012 115.200,213.607 115.335,213.533 115.500 C 213.366 115.876,211.236 117.175,210.300 117.471 C 209.915 117.593,209.600 117.852,209.600 118.047 C 209.600 118.241,209.370 118.400,209.088 118.400 C 208.807 118.400,208.317 118.760,208.000 119.200 C 207.683 119.640,207.191 120.000,206.908 120.000 C 206.625 120.000,205.828 120.540,205.137 121.200 C 204.446 121.860,203.736 122.400,203.559 122.400 C 202.643 122.400,192.596 132.466,191.766 134.216 C 191.096 135.628,190.641 135.913,190.200 135.200 C 190.064 134.980,189.738 134.803,189.476 134.806 C 189.190 134.810,189.239 134.967,189.600 135.200 C 190.085 135.514,190.028 135.589,189.300 135.594 C 188.805 135.597,188.400 135.420,188.400 135.200 C 188.400 134.980,187.961 134.800,187.424 134.800 C 186.887 134.800,186.336 134.620,186.200 134.400 C 186.064 134.180,185.648 134.013,185.276 134.028 C 184.725 134.051,184.748 134.120,185.400 134.400 C 186.104 134.702,186.065 134.747,185.076 134.772 C 184.424 134.788,184.056 134.632,184.200 134.400 C 184.361 134.139,182.071 134.000,177.624 134.000 C 173.341 134.000,170.800 134.149,170.800 134.400 C 170.800 134.620,169.900 134.800,168.800 134.800 C 167.700 134.800,166.800 134.980,166.800 135.200 C 166.800 135.420,166.170 135.600,165.400 135.600 C 164.630 135.600,164.000 135.780,164.000 136.000 C 164.000 136.220,163.550 136.400,163.000 136.400 C 162.450 136.400,162.000 136.580,162.000 136.800 C 162.000 137.020,161.676 137.200,161.280 137.200 C 160.386 137.200,158.407 138.094,158.403 138.500 C 158.401 138.665,158.040 138.800,157.600 138.800 C 157.160 138.800,156.800 138.980,156.800 139.200 C 156.800 139.420,156.440 139.600,156.000 139.600 C 155.560 139.600,155.200 139.780,155.200 140.000 C 155.200 140.220,154.840 140.400,154.400 140.400 C 153.960 140.400,153.600 140.553,153.600 140.739 C 153.600 140.926,152.880 141.403,152.000 141.800 C 151.120 142.197,150.400 142.662,150.400 142.834 C 150.400 143.006,150.051 143.257,149.625 143.392 C 149.199 143.527,147.354 145.151,145.525 147.001 C 141.079 151.497,140.400 152.278,140.400 152.897 C 140.400 153.187,140.040 153.683,139.600 154.000 C 139.160 154.317,138.800 154.857,138.800 155.200 C 138.800 155.543,138.440 156.083,138.000 156.400 C 137.560 156.717,137.200 157.297,137.200 157.688 C 137.200 158.080,137.020 158.400,136.800 158.400 C 136.580 158.400,136.400 158.749,136.400 159.176 C 136.400 159.603,136.236 160.054,136.035 160.178 C 135.834 160.303,135.547 161.168,135.396 162.102 C 135.246 163.036,134.784 165.086,134.371 166.657 C 133.321 170.646,132.400 176.147,132.400 178.424 C 132.400 181.022,131.874 181.428,128.133 181.723 C 122.716 182.151,114.174 185.374,110.971 188.200 C 110.722 188.420,109.636 189.305,108.559 190.166 C 107.481 191.028,105.880 192.617,105.000 193.697 C 104.120 194.777,103.214 195.872,102.986 196.130 C 101.084 198.291,98.526 203.885,97.376 208.400 C 96.311 212.579,96.009 221.057,96.814 224.200 C 98.967 232.609,101.850 237.962,106.798 242.740 C 110.149 245.975,112.022 246.759,110.259 244.189 C 106.763 239.094,105.300 226.965,107.242 219.176 C 111.037 203.949,123.861 192.902,139.200 191.646 L 142.200 191.400 142.470 187.854 C 144.649 159.239,173.543 138.764,200.655 146.622 C 201.322 146.815,201.762 146.539,202.655 145.368 C 211.666 133.547,226.640 123.985,240.770 121.027 C 242.217 120.724,244.480 120.248,245.800 119.969 C 249.294 119.230,262.491 119.335,266.800 120.137 C 276.458 121.933,284.091 124.896,292.000 129.920 C 294.090 131.247,295.869 132.141,295.954 131.905 C 296.172 131.298,288.437 123.892,285.196 121.606 C 284.428 121.065,283.451 120.302,283.025 119.911 C 282.599 119.520,281.757 118.982,281.154 118.715 C 280.551 118.449,280.145 118.088,280.252 117.915 C 280.360 117.742,280.167 117.600,279.824 117.600 C 279.481 117.600,279.200 117.318,279.200 116.973 C 279.200 116.528,278.968 116.420,278.400 116.600 C 277.776 116.798,277.600 116.672,277.600 116.027 C 277.600 115.545,277.340 115.200,276.976 115.200 C 276.633 115.200,276.464 115.380,276.600 115.600 C 276.736 115.820,276.678 116.000,276.470 116.000 C 276.263 116.000,275.999 115.640,275.884 115.200 C 275.762 114.735,275.338 114.400,274.871 114.400 C 274.429 114.400,273.962 114.175,273.833 113.900 C 273.650 113.508,273.548 113.514,273.357 113.928 C 273.177 114.320,272.966 114.243,272.535 113.628 C 272.216 113.173,271.692 112.800,271.372 112.800 C 271.051 112.800,270.432 112.620,269.995 112.400 C 269.558 112.180,268.842 111.820,268.405 111.600 C 267.968 111.380,267.169 111.200,266.629 111.200 C 266.089 111.200,265.536 111.020,265.400 110.800 C 265.264 110.580,264.653 110.400,264.043 110.400 C 263.433 110.400,262.804 110.270,262.645 110.112 C 262.487 109.954,261.613 109.774,260.703 109.713 C 259.793 109.653,258.917 109.390,258.756 109.129 C 258.414 108.575,236.805 108.098,236.289 108.633 M290.800 124.998 C 290.800 125.371,293.289 127.585,293.718 127.594 C 293.893 127.597,293.620 127.195,293.111 126.700 C 291.712 125.340,290.800 124.668,290.800 124.998 M112.220 223.344 C 110.976 224.587,110.947 225.171,112.059 226.584 C 113.034 227.824,114.870 227.782,115.844 226.499 C 117.731 224.014,114.426 221.137,112.220 223.344 M119.212 228.112 C 117.793 228.830,116.400 231.092,116.400 232.679 C 116.400 239.124,125.828 239.632,126.686 233.234 C 127.205 229.362,122.761 226.316,119.212 228.112 " stroke="none" fill="#456686" fill-rule="evenodd"></path><path id="path2" d="M280.252 117.915 C 280.145 118.088,280.551 118.449,281.154 118.715 C 281.757 118.982,282.599 119.520,283.025 119.911 C 283.451 120.302,284.428 121.065,285.196 121.606 C 288.437 123.892,296.172 131.298,295.954 131.905 C 295.869 132.141,294.090 131.247,292.000 129.920 C 284.091 124.896,276.458 121.933,266.800 120.137 C 262.491 119.335,249.294 119.230,245.800 119.969 C 244.480 120.248,242.217 120.724,240.770 121.027 C 226.640 123.985,211.666 133.547,202.655 145.368 C 201.762 146.539,201.322 146.815,200.655 146.622 C 173.543 138.764,144.649 159.239,142.470 187.854 L 142.200 191.400 139.200 191.646 C 123.861 192.902,111.037 203.949,107.242 219.176 C 105.286 227.023,106.715 238.757,110.300 244.287 C 111.305 245.837,110.652 246.056,108.998 244.724 C 107.972 243.898,107.686 243.768,108.200 244.361 C 109.595 245.973,117.202 250.175,120.895 251.373 C 126.291 253.123,127.581 253.199,151.624 253.200 C 171.309 253.200,174.760 253.286,175.424 253.791 C 176.363 254.505,311.366 254.701,311.807 253.989 C 311.939 253.775,313.196 253.600,314.600 253.600 C 316.004 253.600,317.264 253.420,317.400 253.200 C 317.536 252.980,318.166 252.800,318.800 252.800 C 319.434 252.800,320.064 252.620,320.200 252.400 C 320.336 252.180,320.889 252.000,321.429 252.000 C 321.969 252.000,322.723 251.841,323.105 251.647 C 323.487 251.452,324.250 251.112,324.800 250.890 C 325.350 250.668,326.423 250.210,327.184 249.872 C 327.945 249.533,328.738 249.362,328.946 249.490 C 329.154 249.618,329.214 249.546,329.080 249.329 C 328.946 249.113,329.458 248.691,330.218 248.393 C 330.978 248.095,331.600 247.704,331.600 247.525 C 331.600 247.346,331.960 247.200,332.400 247.200 C 332.840 247.200,333.200 247.050,333.200 246.868 C 333.200 246.685,333.695 246.280,334.300 245.968 C 334.905 245.655,335.749 245.085,336.175 244.700 C 336.602 244.315,337.217 244.000,337.542 244.000 C 337.867 244.000,338.037 243.904,337.920 243.786 C 337.802 243.669,339.302 241.970,341.253 240.012 C 343.204 238.054,344.800 236.249,344.800 236.002 C 344.800 235.755,344.980 235.664,345.200 235.800 C 345.420 235.936,345.600 235.767,345.600 235.424 C 345.600 235.081,345.780 234.800,346.000 234.800 C 346.220 234.800,346.400 234.530,346.400 234.200 C 346.400 233.870,346.580 233.600,346.800 233.600 C 347.020 233.600,347.200 233.403,347.200 233.162 C 347.200 232.921,347.548 232.235,347.973 231.638 C 349.220 229.887,351.200 225.882,351.200 225.111 C 351.200 224.720,351.380 224.400,351.600 224.400 C 351.820 224.400,352.000 224.121,352.000 223.781 C 352.000 223.440,352.360 222.416,352.800 221.506 C 353.240 220.595,353.600 219.264,353.600 218.548 C 353.600 217.833,353.746 217.157,353.924 217.047 C 354.102 216.937,354.293 215.987,354.347 214.937 C 354.401 213.886,354.598 212.841,354.784 212.613 C 355.235 212.063,355.207 202.052,354.754 201.772 C 354.559 201.651,354.400 200.811,354.400 199.905 C 354.400 198.998,354.238 197.704,354.041 197.028 C 352.269 190.969,351.849 189.667,351.370 188.756 C 351.068 188.182,350.936 187.597,351.077 187.456 C 351.218 187.315,351.123 187.200,350.867 187.200 C 350.610 187.200,350.396 186.885,350.391 186.500 C 350.386 186.115,350.030 185.350,349.600 184.800 C 349.170 184.250,348.814 183.575,348.809 183.300 C 348.804 183.025,348.620 182.800,348.400 182.800 C 348.180 182.800,348.000 182.530,348.000 182.200 C 348.000 181.870,347.820 181.600,347.600 181.600 C 347.380 181.600,347.200 181.330,347.200 181.000 C 347.200 180.670,347.020 180.400,346.800 180.400 C 346.580 180.400,346.400 180.130,346.400 179.800 C 346.400 179.470,346.220 179.200,346.000 179.200 C 345.780 179.200,345.600 178.829,345.600 178.376 C 345.600 177.923,345.455 177.643,345.277 177.752 C 345.099 177.862,344.618 177.505,344.208 176.958 C 342.523 174.715,336.674 169.200,335.980 169.200 C 335.745 169.200,335.640 169.058,335.748 168.885 C 335.855 168.712,335.370 168.317,334.671 168.007 C 333.972 167.698,333.051 167.120,332.625 166.722 C 332.198 166.325,331.613 166.000,331.325 166.000 C 331.036 166.000,330.800 165.820,330.800 165.600 C 330.800 165.380,330.440 165.200,330.000 165.200 C 329.560 165.200,329.200 165.020,329.200 164.800 C 329.200 164.580,328.964 164.400,328.675 164.400 C 328.386 164.400,327.426 164.050,326.541 163.623 C 325.656 163.195,324.182 162.611,323.266 162.325 C 322.350 162.039,321.600 161.658,321.600 161.479 C 321.600 161.300,321.446 161.248,321.257 161.365 C 321.068 161.481,320.303 161.392,319.557 161.165 C 318.390 160.811,315.041 160.167,312.694 159.844 C 311.617 159.697,311.248 159.141,311.137 157.499 C 311.082 156.675,310.926 156.000,310.791 156.000 C 310.655 156.000,310.300 155.100,310.000 154.000 C 309.700 152.900,309.328 152.000,309.173 152.000 C 309.018 152.000,308.772 151.205,308.626 150.233 C 308.480 149.261,308.102 148.250,307.785 147.987 C 307.468 147.724,307.300 147.362,307.411 147.182 C 307.522 147.002,307.427 146.740,307.200 146.600 C 306.973 146.460,306.891 146.177,307.017 145.972 C 307.144 145.768,307.084 145.600,306.884 145.600 C 306.684 145.600,306.187 144.790,305.778 143.800 C 305.370 142.810,304.882 142.000,304.694 142.000 C 304.507 142.000,304.464 141.820,304.600 141.600 C 304.736 141.380,304.684 141.200,304.484 141.200 C 304.285 141.200,303.797 140.480,303.400 139.600 C 303.003 138.720,302.568 138.000,302.434 138.000 C 302.299 138.000,301.744 137.280,301.200 136.400 C 300.656 135.520,300.074 134.800,299.906 134.800 C 299.738 134.800,299.600 134.569,299.600 134.286 C 299.600 133.540,288.487 122.400,287.743 122.400 C 287.541 122.400,287.117 122.040,286.800 121.600 C 286.483 121.160,286.073 120.800,285.890 120.800 C 285.706 120.800,284.496 120.080,283.200 119.200 C 280.678 117.488,280.551 117.432,280.252 117.915 M184.177 134.438 C 184.054 134.637,184.413 134.800,184.976 134.800 C 186.202 134.800,186.301 134.572,185.200 134.284 C 184.761 134.169,184.300 134.238,184.177 134.438 M188.400 135.200 C 188.400 135.420,188.805 135.597,189.300 135.594 C 190.028 135.589,190.085 135.514,189.600 135.200 C 188.824 134.699,188.400 134.699,188.400 135.200 M132.253 175.236 C 132.114 175.931,132.025 177.423,132.056 178.550 C 132.103 180.258,132.163 180.067,132.418 177.400 C 132.741 174.019,132.674 173.132,132.253 175.236 M125.800 181.592 C 125.327 181.790,126.227 181.838,128.000 181.709 C 129.650 181.588,131.075 181.424,131.167 181.345 C 131.514 181.043,126.563 181.272,125.800 181.592 M122.400 182.418 C 121.962 182.715,122.124 182.752,123.000 182.556 C 124.471 182.227,124.790 181.998,123.767 182.006 C 123.345 182.009,122.730 182.195,122.400 182.418 M112.700 186.629 C 112.095 186.957,111.600 187.310,111.600 187.413 C 111.600 187.799,112.232 187.557,113.200 186.800 C 114.389 185.870,114.211 185.809,112.700 186.629 M108.789 189.654 L 106.600 191.663 108.800 189.937 C 110.010 188.988,111.075 188.163,111.167 188.105 C 111.258 188.047,111.253 187.920,111.155 187.822 C 111.058 187.724,109.993 188.548,108.789 189.654 M104.975 193.300 L 103.800 194.600 105.100 193.425 C 106.312 192.330,106.584 192.000,106.275 192.000 C 106.206 192.000,105.621 192.585,104.975 193.300 M101.414 197.835 C 101.041 198.404,100.827 198.961,100.939 199.072 C 101.050 199.183,101.429 198.718,101.781 198.037 C 102.559 196.533,102.344 196.415,101.414 197.835 M97.049 207.815 C 96.912 208.173,96.818 208.856,96.841 209.333 C 96.867 209.881,97.003 209.686,97.210 208.803 C 97.560 207.316,97.465 206.733,97.049 207.815 M96.256 211.284 C 96.121 211.788,96.042 214.630,96.081 217.600 L 96.151 223.000 96.380 216.800 C 96.628 210.102,96.624 209.911,96.256 211.284 M115.900 223.498 C 117.042 224.993,116.117 227.037,114.116 227.437 C 112.868 227.686,111.200 226.251,111.200 224.928 C 111.200 222.876,114.628 221.833,115.900 223.498 M96.846 225.325 C 96.793 226.166,98.023 230.110,98.264 229.869 C 98.354 229.780,98.166 228.918,97.847 227.953 C 97.529 226.989,97.183 225.840,97.080 225.400 C 96.920 224.714,96.886 224.704,96.846 225.325 M124.281 228.384 C 128.778 231.126,126.719 237.880,121.422 237.764 C 117.299 237.673,115.025 233.358,117.312 229.965 C 118.944 227.544,121.829 226.889,124.281 228.384 M103.375 239.332 C 103.991 240.139,104.576 240.800,104.675 240.800 C 104.953 240.800,103.221 238.460,102.709 238.144 C 102.459 237.989,102.759 238.524,103.375 239.332 " stroke="none" fill="#5c8cb4" fill-rule="evenodd"></path><path id="path3" d="M164.400 97.558 C 164.400 97.755,163.635 98.017,162.700 98.139 C 159.389 98.575,157.599 98.596,157.594 98.200 C 157.590 97.980,157.413 98.070,157.200 98.400 C 156.987 98.730,156.809 98.843,156.806 98.651 C 156.803 98.459,156.571 98.492,156.290 98.725 C 156.010 98.958,155.110 99.095,154.290 99.030 C 153.471 98.965,152.800 99.086,152.800 99.299 C 152.800 99.511,152.530 99.582,152.200 99.455 C 151.870 99.329,151.600 99.383,151.600 99.575 C 151.600 99.767,150.700 100.049,149.600 100.200 C 148.500 100.351,147.600 100.638,147.600 100.838 C 147.600 101.037,146.700 101.200,145.600 101.200 C 144.500 101.200,143.600 101.380,143.600 101.600 C 143.600 101.820,143.158 102.000,142.619 102.000 C 141.708 102.000,140.612 102.346,138.583 103.273 C 138.133 103.478,137.464 103.691,137.094 103.745 C 136.725 103.799,136.298 103.969,136.145 104.122 C 135.992 104.275,135.556 104.400,135.176 104.400 C 134.796 104.400,134.383 104.667,134.258 104.993 C 134.128 105.331,133.765 105.485,133.415 105.350 C 133.077 105.221,132.800 105.291,132.800 105.506 C 132.800 105.722,132.080 106.013,131.200 106.154 C 130.165 106.319,129.600 106.620,129.600 107.005 C 129.600 107.399,129.196 107.600,128.400 107.600 C 127.740 107.600,127.200 107.780,127.200 108.000 C 127.200 108.220,126.989 108.400,126.731 108.400 C 126.474 108.400,125.903 108.715,125.463 109.100 C 125.023 109.485,124.793 109.577,124.952 109.305 C 125.147 108.970,125.040 108.886,124.623 109.046 C 124.283 109.177,124.094 109.429,124.204 109.607 C 124.314 109.785,123.953 109.880,123.402 109.820 C 122.806 109.755,122.400 109.914,122.400 110.212 C 122.400 110.779,121.276 111.372,120.460 111.236 C 120.163 111.187,120.038 111.339,120.183 111.573 C 120.329 111.808,120.189 112.000,119.873 112.000 C 119.557 112.000,119.076 112.268,118.804 112.596 C 118.532 112.923,118.162 113.100,117.982 112.989 C 117.802 112.878,117.417 113.105,117.127 113.493 C 116.837 113.882,116.132 114.441,115.561 114.735 C 114.989 115.029,114.021 115.701,113.409 116.226 C 112.796 116.752,112.111 117.069,111.886 116.930 C 111.651 116.784,111.598 116.873,111.762 117.138 C 112.021 117.557,111.522 117.785,110.670 117.637 C 110.489 117.606,110.445 117.749,110.573 117.956 C 110.700 118.162,110.273 118.566,109.622 118.854 C 108.972 119.142,108.626 119.492,108.852 119.632 C 109.079 119.773,108.575 120.174,107.732 120.525 C 106.890 120.877,105.750 121.797,105.200 122.571 C 104.642 123.356,103.846 123.986,103.400 123.995 C 102.736 124.009,102.702 124.078,103.200 124.400 C 103.698 124.722,103.664 124.790,103.000 124.803 C 102.560 124.811,101.662 125.443,101.004 126.209 C 100.346 126.974,99.658 127.600,99.475 127.600 C 99.073 127.600,98.357 128.357,97.756 129.417 C 97.512 129.848,97.238 130.110,97.147 130.000 C 96.864 129.660,95.670 130.977,95.908 131.368 C 96.031 131.571,95.824 131.618,95.445 131.473 C 95.034 131.315,94.857 131.369,95.005 131.608 C 95.297 132.081,93.822 134.088,93.453 133.720 C 93.314 133.581,93.200 133.772,93.200 134.146 C 93.200 134.519,92.930 134.929,92.600 135.055 C 92.270 135.182,92.000 135.536,92.000 135.843 C 92.000 136.149,91.820 136.400,91.600 136.400 C 91.380 136.400,91.200 136.681,91.200 137.024 C 91.200 137.367,91.020 137.536,90.800 137.400 C 90.458 137.189,90.209 137.781,90.500 138.115 C 90.555 138.178,90.016 138.853,89.302 139.615 C 88.588 140.377,88.003 141.225,88.002 141.500 C 88.001 141.775,87.820 142.000,87.600 142.000 C 87.380 142.000,87.200 142.251,87.200 142.558 C 87.200 142.864,86.660 143.693,86.000 144.400 C 85.340 145.107,84.800 145.936,84.800 146.242 C 84.800 146.549,84.662 146.800,84.494 146.800 C 84.326 146.800,83.751 147.509,83.216 148.375 C 82.680 149.241,82.078 149.848,81.878 149.725 C 81.674 149.598,81.633 149.873,81.785 150.352 C 81.963 150.913,81.863 151.278,81.494 151.419 C 81.186 151.538,80.933 151.877,80.933 152.173 C 80.933 152.974,79.950 155.200,79.596 155.200 C 79.427 155.200,79.171 155.830,79.026 156.600 C 78.881 157.375,78.524 158.000,78.226 158.000 C 77.931 158.000,77.714 158.315,77.744 158.700 C 77.775 159.089,77.564 159.351,77.270 159.290 C 76.979 159.230,76.847 159.352,76.977 159.562 C 77.107 159.773,77.027 160.060,76.800 160.200 C 76.573 160.340,76.491 160.623,76.617 160.828 C 76.744 161.032,76.653 161.200,76.416 161.200 C 76.156 161.200,76.084 161.597,76.236 162.200 C 76.390 162.816,76.317 163.200,76.043 163.200 C 75.800 163.200,75.600 163.545,75.600 163.967 C 75.600 164.388,75.390 164.803,75.132 164.889 C 74.872 164.976,74.689 165.708,74.721 166.539 C 74.752 167.361,74.639 167.948,74.471 167.844 C 74.304 167.740,74.138 168.032,74.103 168.492 C 74.068 168.952,73.836 169.454,73.586 169.609 C 73.336 169.763,73.180 169.959,73.239 170.045 C 73.297 170.130,73.197 170.650,73.015 171.200 C 72.543 172.631,72.498 172.863,72.440 174.200 C 72.404 175.023,72.281 175.232,72.048 174.865 C 71.831 174.521,71.709 174.912,71.709 175.958 C 71.709 176.854,71.515 177.821,71.277 178.107 C 71.040 178.393,70.802 179.476,70.748 180.513 C 70.694 181.551,70.504 182.400,70.325 182.400 C 70.146 182.400,70.000 182.904,70.000 183.520 C 70.000 184.136,69.804 184.836,69.565 185.075 C 69.252 185.388,69.252 185.585,69.565 185.778 C 69.804 185.926,69.997 186.352,69.994 186.724 C 69.989 187.307,69.934 187.317,69.600 186.800 C 69.318 186.364,69.211 186.697,69.206 188.020 C 69.203 189.021,68.975 190.082,68.700 190.379 C 68.300 190.810,68.300 190.861,68.700 190.635 C 69.010 190.460,69.200 190.598,69.200 191.000 C 69.200 191.356,69.045 191.551,68.855 191.434 C 68.666 191.317,68.531 192.099,68.555 193.171 C 68.580 194.244,68.735 195.038,68.900 194.937 C 69.065 194.836,69.200 194.933,69.200 195.153 C 69.200 195.373,69.040 195.652,68.844 195.773 C 68.342 196.083,68.375 203.288,68.881 203.898 C 69.174 204.250,69.163 204.400,68.846 204.400 C 68.566 204.400,68.420 205.088,68.462 206.200 C 68.499 207.190,68.726 208.003,68.965 208.006 C 69.204 208.009,69.156 208.167,68.857 208.356 C 68.296 208.712,68.387 211.017,69.022 212.566 C 69.266 213.160,69.209 213.259,68.768 213.007 C 68.308 212.744,68.295 212.785,68.700 213.221 C 68.975 213.518,69.200 214.534,69.200 215.480 C 69.200 216.426,69.380 217.200,69.600 217.200 C 69.820 217.200,70.000 217.560,70.000 218.000 C 70.000 218.440,70.214 218.755,70.476 218.700 C 71.271 218.533,71.344 220.106,70.567 220.674 C 70.171 220.963,70.056 221.200,70.311 221.200 C 70.566 221.200,70.671 221.472,70.543 221.805 C 70.379 222.232,70.495 222.339,70.939 222.168 C 71.915 221.793,72.308 223.887,71.387 224.560 C 70.590 225.143,70.914 226.085,71.796 225.746 C 72.181 225.598,72.445 225.896,72.607 226.664 C 72.740 227.289,72.939 228.160,73.051 228.600 C 73.163 229.040,73.403 229.985,73.585 230.700 C 73.781 231.469,73.764 232.000,73.545 232.000 C 73.342 232.000,73.217 232.630,73.269 233.400 C 73.351 234.610,74.000 235.499,74.000 234.400 C 74.000 234.180,74.200 234.000,74.445 234.000 C 74.709 234.000,74.821 234.472,74.721 235.159 C 74.606 235.939,74.705 236.258,75.024 236.136 C 75.784 235.844,76.130 237.316,75.422 237.834 C 74.807 238.283,74.561 239.200,75.056 239.200 C 75.197 239.200,75.551 238.885,75.843 238.500 C 76.290 237.911,76.377 237.898,76.387 238.420 C 76.394 238.761,76.178 239.262,75.907 239.533 C 75.516 239.924,75.592 240.073,76.274 240.251 C 76.823 240.395,77.436 241.177,77.968 242.414 C 78.999 244.811,79.670 246.563,79.614 246.714 C 79.591 246.777,79.850 247.107,80.189 247.447 C 80.529 247.786,80.715 248.215,80.601 248.398 C 80.488 248.582,80.543 248.792,80.723 248.866 C 81.817 249.313,83.614 253.801,82.913 254.337 C 82.251 254.844,82.261 254.865,83.055 254.629 C 83.781 254.413,84.200 254.817,85.811 257.287 C 88.996 262.167,91.598 265.604,95.438 270.000 C 100.805 276.145,103.953 278.803,101.121 274.800 C 81.684 247.324,76.836 213.715,87.651 181.414 C 96.393 155.307,115.955 133.165,140.400 121.708 C 145.593 119.274,151.335 117.060,155.200 116.000 C 156.190 115.729,157.492 115.358,158.093 115.177 C 158.927 114.925,159.272 115.001,159.549 115.495 C 159.865 116.059,159.989 116.069,160.493 115.572 C 160.812 115.258,161.670 114.550,162.400 114.000 C 163.130 113.450,163.955 112.775,164.235 112.500 C 164.514 112.225,164.934 112.000,165.168 112.000 C 165.402 112.000,165.818 111.640,166.093 111.200 C 166.368 110.760,166.819 110.400,167.096 110.400 C 167.373 110.400,167.600 110.220,167.600 110.000 C 167.600 109.780,167.960 109.600,168.400 109.600 C 168.840 109.600,169.200 109.390,169.200 109.133 C 169.200 108.877,169.309 108.776,169.442 108.909 C 169.575 109.042,170.111 108.690,170.633 108.126 C 171.285 107.423,171.846 107.171,172.423 107.322 C 173.026 107.480,173.204 107.387,173.052 106.991 C 172.925 106.660,173.042 106.518,173.346 106.634 C 173.623 106.741,174.183 106.461,174.589 106.012 C 175.267 105.263,178.155 104.150,178.930 104.339 C 179.111 104.384,179.145 104.235,179.006 104.010 C 178.807 103.688,179.410 103.474,180.100 103.621 C 180.155 103.633,180.852 103.370,181.649 103.037 C 182.446 102.704,183.211 102.545,183.349 102.683 C 183.487 102.820,183.600 102.723,183.600 102.467 C 183.600 102.210,183.949 102.000,184.376 102.000 C 184.803 102.000,185.270 101.810,185.414 101.578 C 185.557 101.346,185.973 101.217,186.337 101.292 C 186.702 101.368,187.180 101.206,187.400 100.934 C 187.620 100.661,188.835 100.386,190.100 100.321 C 192.507 100.199,193.013 99.588,192.014 98.008 C 191.542 97.262,187.023 96.983,187.470 97.728 C 187.677 98.073,187.599 98.088,187.177 97.782 C 186.704 97.439,183.965 97.327,183.200 97.618 C 183.090 97.660,182.820 97.651,182.600 97.597 C 181.102 97.233,174.399 97.357,174.394 97.748 C 174.391 97.997,174.213 97.930,174.000 97.600 C 173.722 97.169,173.611 97.147,173.606 97.520 C 173.602 97.887,173.405 97.930,172.934 97.667 C 172.540 97.446,171.771 97.436,171.054 97.642 C 170.200 97.887,169.748 97.843,169.527 97.495 C 169.337 97.197,169.210 97.173,169.206 97.433 C 169.203 97.672,168.930 97.867,168.600 97.867 C 168.270 97.867,168.000 97.741,168.000 97.588 C 168.000 97.259,166.520 97.399,165.434 97.831 C 164.897 98.045,164.755 97.996,164.958 97.668 C 165.117 97.411,165.057 97.200,164.824 97.200 C 164.591 97.200,164.400 97.361,164.400 97.558 M70.000 211.400 C 70.000 211.950,69.820 212.400,69.600 212.400 C 69.153 212.400,69.052 211.082,69.467 210.667 C 69.908 210.226,70.000 210.353,70.000 211.400 " stroke="none" fill="#f9e7b8" fill-rule="evenodd"></path><path id="path4" d="M157.700 117.482 C 156.590 118.626,156.054 119.600,156.534 119.600 C 156.869 119.600,159.505 116.392,159.268 116.274 C 159.120 116.201,158.415 116.744,157.700 117.482 M155.284 119.870 C 155.340 120.052,154.940 120.658,154.394 121.218 C 151.636 124.043,150.093 126.000,150.623 126.000 C 150.941 126.000,151.200 125.828,151.200 125.618 C 151.200 125.408,151.611 124.823,152.114 124.318 C 154.717 121.704,155.999 120.047,155.606 119.804 C 155.372 119.659,155.227 119.689,155.284 119.870 M148.471 128.420 C 147.992 128.866,147.600 129.412,147.600 129.634 C 147.600 129.855,148.069 129.567,148.642 128.994 C 149.881 127.756,149.729 127.248,148.471 128.420 M146.400 131.401 C 146.106 131.950,145.705 132.400,145.509 132.400 C 145.313 132.400,145.264 132.580,145.400 132.800 C 145.801 133.449,146.400 133.258,146.400 132.480 C 146.400 132.084,146.613 131.547,146.873 131.287 C 147.134 131.026,147.254 130.721,147.141 130.607 C 147.027 130.494,146.694 130.851,146.400 131.401 M143.197 136.721 C 141.759 138.502,141.212 140.000,142.000 140.000 C 142.220 140.000,142.400 139.640,142.400 139.200 C 142.400 138.760,142.580 138.400,142.800 138.400 C 143.020 138.400,143.200 138.145,143.200 137.833 C 143.200 137.522,143.407 137.198,143.660 137.113 C 143.913 137.029,144.047 136.740,143.957 136.471 C 143.846 136.138,143.603 136.217,143.197 136.721 M140.085 142.813 C 139.818 143.240,139.600 143.952,139.600 144.396 C 139.600 144.840,139.245 145.865,138.811 146.675 C 138.338 147.557,138.115 148.519,138.254 149.074 C 138.382 149.583,138.308 150.000,138.089 150.000 C 137.870 150.000,137.612 150.540,137.515 151.200 C 137.418 151.860,137.487 152.400,137.669 152.400 C 137.851 152.400,138.000 152.038,138.000 151.595 C 138.000 151.152,138.164 150.477,138.364 150.095 C 138.894 149.084,140.896 142.363,140.719 142.186 C 140.637 142.104,140.352 142.386,140.085 142.813 M79.755 153.812 C 79.390 154.369,79.164 154.898,79.253 154.987 C 79.342 155.076,79.718 154.620,80.089 153.974 C 80.914 152.536,80.669 152.417,79.755 153.812 M136.538 155.403 C 136.162 156.212,136.181 156.400,136.638 156.400 C 136.971 156.400,137.200 155.992,137.200 155.400 C 137.200 154.155,137.116 154.155,136.538 155.403 M136.046 157.067 C 136.021 157.324,135.884 157.864,135.741 158.267 C 135.540 158.836,135.594 158.897,135.979 158.542 C 136.252 158.291,136.389 157.751,136.284 157.342 C 136.179 156.934,136.072 156.810,136.046 157.067 M134.267 164.267 C 134.120 164.413,134.000 164.943,134.000 165.443 C 134.000 165.943,133.844 166.449,133.654 166.567 C 133.464 166.684,133.197 167.460,133.062 168.290 C 132.927 169.121,132.624 170.610,132.389 171.600 C 132.154 172.590,131.836 175.020,131.681 177.000 L 131.400 180.600 129.000 180.844 L 126.600 181.087 129.200 181.044 L 131.800 181.000 132.059 178.000 C 132.362 174.477,132.977 171.210,134.351 165.811 C 134.764 164.191,134.742 163.792,134.267 164.267 M74.000 166.776 C 74.000 167.229,74.180 167.600,74.400 167.600 C 74.620 167.600,74.800 167.341,74.800 167.024 C 74.800 166.707,74.620 166.336,74.400 166.200 C 74.180 166.064,74.000 166.323,74.000 166.776 M70.200 180.800 C 70.050 181.273,70.017 181.750,70.127 181.860 C 70.237 181.970,70.450 181.673,70.600 181.200 C 70.750 180.727,70.783 180.250,70.673 180.140 C 70.563 180.030,70.350 180.327,70.200 180.800 M123.800 181.468 C 120.501 182.188,112.705 185.608,111.600 186.819 C 111.490 186.940,110.770 187.478,110.000 188.015 C 103.338 192.663,95.797 204.982,96.041 210.821 C 96.074 211.620,96.153 211.543,96.472 210.400 C 99.008 201.316,100.985 197.538,105.938 192.306 C 110.953 187.009,116.059 184.189,125.200 181.668 C 126.677 181.260,125.511 181.094,123.800 181.468 M95.457 213.900 C 95.124 215.912,95.204 219.963,95.600 221.200 C 95.801 221.827,95.935 220.374,95.960 217.300 C 96.002 212.202,95.877 211.359,95.457 213.900 M70.000 222.776 C 70.000 223.229,70.180 223.600,70.400 223.600 C 70.620 223.600,70.800 223.341,70.800 223.024 C 70.800 222.707,70.620 222.336,70.400 222.200 C 70.180 222.064,70.000 222.323,70.000 222.776 M96.041 223.854 C 95.839 229.995,107.108 247.200,111.332 247.200 C 111.942 247.200,111.694 246.903,110.378 246.059 C 104.074 242.015,98.587 233.402,96.454 224.200 C 96.100 222.675,96.081 222.659,96.041 223.854 M70.800 226.338 C 70.800 226.592,70.967 226.800,71.171 226.800 C 71.375 226.800,71.604 227.115,71.680 227.500 C 71.769 227.948,71.920 228.039,72.100 227.753 C 72.255 227.508,72.025 226.985,71.591 226.591 C 71.139 226.183,70.800 226.074,70.800 226.338 M72.163 230.651 C 72.689 231.786,73.200 231.883,73.200 230.847 C 73.200 230.432,72.868 230.007,72.463 229.901 C 71.819 229.732,71.781 229.826,72.163 230.651 M96.255 241.455 C 94.750 242.959,94.820 244.809,96.431 246.164 C 99.781 248.984,103.652 245.009,100.653 241.828 C 99.024 240.101,97.719 239.990,96.255 241.455 M77.600 246.357 C 77.600 247.257,78.646 247.778,78.936 247.023 C 79.140 246.490,78.505 245.600,77.920 245.600 C 77.744 245.600,77.600 245.941,77.600 246.357 M105.001 247.787 C 101.141 250.036,100.505 255.644,103.809 258.297 C 109.848 263.146,117.427 257.120,113.302 250.751 C 110.829 246.932,108.126 245.966,105.001 247.787 M80.006 250.476 C 80.018 251.481,80.787 252.308,80.794 251.324 C 80.797 250.842,80.620 250.336,80.400 250.200 C 80.180 250.064,80.003 250.188,80.006 250.476 M81.600 253.314 C 81.600 254.419,82.133 254.756,82.624 253.962 C 82.773 253.721,82.603 253.232,82.247 252.876 C 81.651 252.279,81.600 252.314,81.600 253.314 M128.251 254.503 C 121.111 266.879,118.794 281.418,122.611 289.900 C 123.131 291.055,123.394 292.000,123.195 292.000 C 122.141 292.000,114.056 286.691,109.159 282.782 C 107.046 281.096,104.886 279.603,104.359 279.465 C 103.832 279.327,102.647 278.488,101.727 277.602 C 100.788 276.698,99.943 276.168,99.803 276.395 C 99.665 276.618,99.743 276.800,99.976 276.800 C 100.209 276.800,100.400 277.073,100.400 277.406 C 100.400 278.087,106.150 284.000,106.812 284.000 C 107.400 284.000,109.207 285.859,108.909 286.158 C 108.776 286.291,109.057 286.400,109.533 286.400 C 110.010 286.400,110.400 286.580,110.400 286.800 C 110.400 287.020,110.684 287.200,111.031 287.200 C 111.379 287.200,112.354 287.920,113.200 288.800 C 114.046 289.680,114.904 290.400,115.107 290.400 C 115.786 290.400,118.192 291.732,118.847 292.470 C 119.203 292.872,119.788 293.200,120.147 293.200 C 120.506 293.200,120.800 293.380,120.800 293.600 C 120.800 293.820,121.160 294.000,121.600 294.000 C 122.040 294.000,122.400 294.180,122.400 294.400 C 122.400 294.620,122.760 294.800,123.200 294.800 C 123.640 294.800,124.000 294.946,124.000 295.125 C 124.000 295.304,124.630 295.698,125.400 296.000 C 126.170 296.302,126.800 296.696,126.800 296.875 C 126.800 297.054,127.300 297.200,127.912 297.200 C 128.565 297.200,129.261 297.530,129.600 298.000 C 129.917 298.440,130.497 298.800,130.888 298.800 C 131.280 298.800,131.600 298.980,131.600 299.200 C 131.600 299.420,132.140 299.600,132.800 299.600 C 133.460 299.600,134.000 299.780,134.000 300.000 C 134.000 300.220,134.540 300.400,135.200 300.400 C 135.860 300.400,136.400 300.580,136.400 300.800 C 136.400 301.020,136.760 301.200,137.200 301.200 C 137.640 301.200,138.000 301.380,138.000 301.600 C 138.000 301.820,138.360 302.000,138.800 302.000 C 139.240 302.000,139.600 302.180,139.600 302.400 C 139.600 302.620,140.219 302.800,140.976 302.800 C 141.733 302.800,142.464 302.980,142.600 303.200 C 142.736 303.420,143.467 303.600,144.224 303.600 C 144.981 303.600,145.600 303.780,145.600 304.000 C 145.600 304.220,145.960 304.400,146.400 304.400 C 146.840 304.400,147.200 304.580,147.200 304.800 C 147.200 305.020,148.100 305.200,149.200 305.200 C 150.300 305.200,151.200 305.380,151.200 305.600 C 151.200 305.820,152.100 306.000,153.200 306.000 C 154.300 306.000,155.200 306.170,155.200 306.377 C 155.200 306.584,156.075 306.747,157.145 306.739 C 158.214 306.731,159.480 306.966,159.957 307.262 C 160.695 307.720,160.887 307.711,161.243 307.200 C 161.557 306.749,161.711 306.724,161.864 307.100 C 161.998 307.431,162.988 307.600,164.800 307.600 C 166.623 307.600,167.594 307.766,167.714 308.100 C 167.859 308.500,168.065 308.500,168.742 308.100 C 169.208 307.825,170.027 307.600,170.561 307.600 C 171.096 307.600,171.615 307.825,171.714 308.100 C 171.859 308.500,172.065 308.500,172.742 308.100 C 173.761 307.499,174.800 307.448,174.800 308.000 C 174.800 308.220,175.250 308.400,175.800 308.400 C 176.350 308.400,176.800 308.220,176.800 308.000 C 176.800 307.780,177.340 307.600,178.000 307.600 C 178.660 307.600,179.200 307.780,179.200 308.000 C 179.200 308.220,179.560 308.400,180.000 308.400 C 180.440 308.400,180.800 308.220,180.800 308.000 C 180.800 307.780,181.700 307.600,182.800 307.600 C 183.900 307.600,184.800 307.420,184.800 307.200 C 184.800 306.980,185.340 306.800,186.000 306.800 C 186.660 306.800,187.200 306.980,187.200 307.200 C 187.200 307.420,187.560 307.600,188.000 307.600 C 188.440 307.600,188.800 307.420,188.800 307.200 C 188.800 306.980,189.610 306.800,190.600 306.800 C 191.590 306.800,192.400 306.620,192.400 306.400 C 192.400 306.180,193.300 306.000,194.400 306.000 C 195.500 306.000,196.400 305.820,196.400 305.600 C 196.400 305.380,197.300 305.200,198.400 305.200 C 199.500 305.200,200.400 305.020,200.400 304.800 C 200.400 304.580,200.940 304.400,201.600 304.400 C 202.260 304.400,202.800 304.220,202.800 304.000 C 202.800 303.780,203.160 303.600,203.600 303.600 C 204.040 303.600,204.400 303.420,204.400 303.200 C 204.400 302.980,204.904 302.800,205.520 302.800 C 206.736 302.800,208.792 301.984,208.797 301.500 C 208.799 301.335,209.340 301.200,210.000 301.200 C 210.660 301.200,211.200 301.020,211.200 300.800 C 211.200 300.580,211.740 300.400,212.400 300.400 C 213.060 300.400,213.600 300.220,213.600 300.000 C 213.600 299.780,213.960 299.600,214.400 299.600 C 214.840 299.600,215.200 299.420,215.200 299.200 C 215.200 298.980,215.740 298.800,216.400 298.800 C 217.060 298.800,217.600 298.620,217.600 298.400 C 217.600 298.180,217.920 298.000,218.312 298.000 C 218.703 298.000,219.283 297.640,219.600 297.200 C 219.918 296.759,220.635 296.400,221.200 296.400 C 221.765 296.400,222.482 296.041,222.800 295.600 C 223.117 295.160,223.697 294.800,224.088 294.800 C 224.480 294.800,224.800 294.620,224.800 294.400 C 224.800 294.180,225.030 294.000,225.312 294.000 C 225.593 294.000,226.083 293.640,226.400 293.200 C 226.717 292.760,227.297 292.400,227.688 292.400 C 228.080 292.400,228.400 292.220,228.400 292.000 C 228.400 291.780,228.747 291.600,229.171 291.600 C 229.596 291.600,230.213 291.330,230.543 291.000 C 230.873 290.670,231.386 290.400,231.683 290.400 C 231.980 290.400,232.483 290.040,232.800 289.600 C 233.117 289.160,233.657 288.800,234.000 288.800 C 234.343 288.800,234.883 288.440,235.200 288.000 C 235.517 287.560,236.021 287.200,236.320 287.200 C 236.618 287.200,237.554 286.480,238.400 285.600 C 239.246 284.720,240.226 284.000,240.579 284.000 C 240.971 284.000,241.313 283.535,241.460 282.800 C 241.592 282.140,241.950 281.600,242.256 281.600 C 242.561 281.600,244.341 280.070,246.211 278.200 C 248.081 276.330,249.892 274.800,250.234 274.800 C 250.963 274.800,252.000 273.859,252.000 273.197 C 252.000 272.944,252.720 272.046,253.600 271.200 C 254.480 270.354,255.200 269.464,255.200 269.221 C 255.200 268.978,256.010 267.969,257.000 266.979 C 257.990 265.989,258.800 264.905,258.800 264.570 C 258.800 263.918,264.184 258.400,264.820 258.400 C 265.029 258.400,265.200 258.040,265.200 257.600 C 265.200 257.160,265.380 256.800,265.600 256.800 C 266.194 256.800,266.084 255.627,265.429 254.971 C 264.773 254.316,263.600 254.206,263.600 254.800 C 263.600 255.020,263.060 255.200,262.400 255.200 C 261.576 255.200,261.200 255.397,261.200 255.829 C 261.200 256.644,260.235 257.600,259.411 257.600 C 259.056 257.600,258.280 258.050,257.687 258.600 C 257.093 259.150,256.151 259.600,255.592 259.600 C 255.034 259.600,254.317 259.960,254.000 260.400 C 253.683 260.840,253.103 261.200,252.712 261.200 C 252.320 261.200,252.000 261.380,252.000 261.600 C 252.000 261.820,251.561 262.000,251.024 262.000 C 250.487 262.000,249.936 262.180,249.800 262.400 C 249.664 262.620,249.203 262.800,248.776 262.800 C 248.349 262.800,248.000 262.980,248.000 263.200 C 248.000 263.420,247.640 263.600,247.200 263.600 C 246.760 263.600,246.400 263.780,246.400 264.000 C 246.400 264.220,245.865 264.400,245.212 264.400 C 244.559 264.400,243.383 264.760,242.600 265.200 C 241.817 265.640,240.641 266.000,239.988 266.000 C 239.335 266.000,238.800 266.180,238.800 266.400 C 238.800 266.620,237.900 266.800,236.800 266.800 C 235.700 266.800,234.800 266.980,234.800 267.200 C 234.800 267.420,233.900 267.600,232.800 267.600 C 231.700 267.600,230.800 267.780,230.800 268.000 C 230.800 268.220,229.900 268.400,228.800 268.400 C 227.700 268.400,226.800 268.580,226.800 268.800 C 226.800 269.020,226.350 269.200,225.800 269.200 C 225.250 269.200,224.800 269.020,224.800 268.800 C 224.800 268.580,224.440 268.400,224.000 268.400 C 223.560 268.400,223.200 268.580,223.200 268.800 C 223.200 269.020,222.660 269.200,222.000 269.200 C 221.340 269.200,220.800 269.020,220.800 268.800 C 220.800 268.580,220.440 268.400,220.000 268.400 C 219.560 268.400,219.200 268.580,219.200 268.800 C 219.200 269.020,218.660 269.200,218.000 269.200 C 217.340 269.200,216.800 269.020,216.800 268.800 C 216.800 268.580,216.440 268.400,216.000 268.400 C 215.560 268.400,215.200 268.580,215.200 268.800 C 215.200 269.020,214.840 269.200,214.400 269.200 C 213.960 269.200,213.600 269.020,213.600 268.800 C 213.600 268.578,212.544 268.400,211.233 268.400 C 209.932 268.400,208.807 268.230,208.733 268.022 C 208.660 267.814,207.295 267.607,205.700 267.561 C 204.105 267.516,202.800 267.326,202.800 267.139 C 202.800 266.953,202.440 266.800,202.000 266.800 C 201.560 266.800,201.200 266.620,201.200 266.400 C 201.200 266.180,200.480 266.000,199.600 266.000 C 198.720 266.000,198.000 265.820,198.000 265.600 C 198.000 265.380,197.280 265.200,196.400 265.200 C 195.520 265.200,194.800 265.020,194.800 264.800 C 194.800 264.580,194.480 264.400,194.088 264.400 C 193.697 264.400,193.117 264.040,192.800 263.600 C 192.483 263.160,191.824 262.800,191.335 262.800 C 190.847 262.800,190.336 262.620,190.200 262.400 C 190.064 262.180,189.553 262.000,189.065 262.000 C 188.576 262.000,187.917 261.640,187.600 261.200 C 187.283 260.760,186.641 260.400,186.173 260.400 C 185.236 260.400,182.949 259.364,182.584 258.775 C 182.457 258.569,182.043 258.400,181.665 258.400 C 181.286 258.400,180.717 258.040,180.400 257.600 C 180.083 257.160,179.575 256.800,179.272 256.800 C 178.969 256.800,178.244 256.297,177.660 255.681 C 175.146 253.029,176.931 253.200,151.811 253.203 L 129.000 253.205 128.251 254.503 M83.184 256.075 C 83.633 256.557,84.000 257.292,84.000 257.709 C 84.000 258.126,84.214 258.395,84.475 258.308 C 85.347 258.018,85.251 257.287,84.202 256.239 C 82.947 254.983,82.030 254.836,83.184 256.075 M85.600 260.000 C 85.600 260.220,85.780 260.400,86.000 260.400 C 86.220 260.400,86.400 260.688,86.400 261.040 C 86.400 261.391,86.940 262.183,87.600 262.800 C 88.260 263.417,88.800 264.209,88.800 264.560 C 88.800 264.933,89.134 265.200,89.600 265.200 C 90.528 265.200,90.670 264.589,89.818 264.262 C 89.498 264.139,88.883 263.355,88.451 262.519 C 87.436 260.557,85.600 258.934,85.600 260.000 M90.400 266.462 C 90.400 266.937,91.098 268.009,91.951 268.845 C 92.804 269.681,93.404 270.463,93.284 270.583 C 93.165 270.702,93.277 270.800,93.533 270.800 C 93.790 270.800,94.000 271.160,94.000 271.600 C 94.000 272.192,94.267 272.400,95.024 272.400 C 95.604 272.400,95.940 272.573,95.800 272.800 C 95.664 273.020,95.743 273.200,95.976 273.200 C 96.209 273.200,96.400 273.548,96.400 273.973 C 96.400 274.398,96.760 274.860,97.200 275.000 C 97.640 275.140,98.000 275.422,98.000 275.627 C 98.000 275.832,98.360 276.000,98.800 276.000 C 99.240 276.000,99.600 275.854,99.600 275.675 C 99.600 275.194,97.429 273.200,96.905 273.200 C 96.657 273.200,96.350 272.871,96.222 272.469 C 96.095 272.068,95.180 270.853,94.190 269.769 C 93.200 268.686,92.084 267.305,91.709 266.700 C 90.891 265.379,90.400 265.290,90.400 266.462 " stroke="none" fill="#faca7c" fill-rule="evenodd"></path></g></svg>