<svg xmlns="http://www.w3.org/2000/svg" id="Layer_1" enable-background="new 0 0 496 496" height="512" viewBox="0 0 496 496" width="512">
    <path d="m178.55 131.77c-11.53 12.77-18.55 29.68-18.55 48.23-32.644 0-58.973 27.981-55.72 61.65-54.91-11-96.28-59.5-96.28-117.65 0-66.27 53.73-120 120-120h32c-23.71 9.37-40 36.95-40 64 0 33.52 25.75 61.01 58.55 63.77z" fill="#ffdf81"/><path d="m178.55 131.77c-11.53 12.77-18.55 29.68-18.55 48.23-32.644 0-58.973 27.981-55.72 61.65-8.45-1.69-16.58-4.27-24.28-7.65v-11.65c0-30.93 25.07-56 56-56 0-16.41 5.49-31.54 14.75-43.65 8.22 5.01 17.68 8.22 27.8 9.07z" fill="#ffcd76"/><path d="m160 4c-8.47 3.34-16 9.01-22.17 16.16-99.005 4.997-148.56 121.137-86.3 196.32-26.59-22.01-43.53-55.27-43.53-92.48 0-66.27 53.73-120 120-120z" fill="#f9ecb4"/><circle cx="64" cy="196" fill="#ffcd76" r="8"/><circle cx="52" cy="184" fill="#ffcd76" r="4"/><path d="m429.26 320.19c-20.211-86.33-132.993-109.245-185.34-37.4.327.44-7.169-2.79-19.92-2.79-39.765 0-72 32.235-72 72-30.93 0-56 25.07-56 56s25.07 56 56 56h272c39.76 0 72-32.24 72-72 0-37.99-29.43-69.12-66.74-71.81z" fill="#add9ff"/><path d="m496 184c0 39.76-32.24 72-72 72h-40.56c-16.04-10.13-35.051-16-55.421-16-31.119-74.683-132.281-86.84-180.1-21.21-15.153-4.357-32.106-3.74-47.63 2.74-15.291-36.738 11.696-77.53 51.711-77.53 0-47.908 45.995-82.416 91.92-69.21 52.41-71.932 165.158-48.807 185.34 37.4 37.31 2.69 66.74 33.82 66.74 71.81z" fill="#add9ff"/><path d="m409.1 70.891c-46.079-37.029-114.105-28.241-149.18 19.899-46.025-13.228-91.92 21.386-91.92 69.21-45.06 0-70.917 50.225-46.779 86.779-15.201-10.009-25.221-27.218-25.221-46.779 0-30.93 25.07-56 56-56 0-47.879 45.957-82.42 91.92-69.21 40.37-55.407 122.24-57.318 165.18-3.899z" fill="#d6ecff"/><path d="m409.1 278.891c-46.079-37.029-114.105-28.24-149.18 19.899-46.025-13.228-91.92 21.386-91.92 69.21-45.06 0-70.917 50.225-46.779 86.779-15.201-10.009-25.221-27.219-25.221-46.779 0-30.93 25.07-56 56-56 0-47.879 45.957-82.42 91.92-69.21 40.37-55.407 122.24-57.318 165.18-3.899z" fill="#d6ecff"/><path d="m328.02 240c-33.856 0-64.758 16.245-84.1 42.79-46.021-13.234-91.92 21.386-91.92 69.21-28.21 0-51.55 20.86-55.43 48h-40.57c-30.93 0-56-25.07-56-56s25.07-56 56-56c0-47.908 45.995-82.416 91.92-69.21 47.793-65.595 148.96-53.522 180.1 21.21z" fill="#5989b3"/><path d="m313.1 214.891c-46.079-37.029-114.105-28.24-149.18 19.899-46.025-13.228-91.92 21.386-91.92 69.21-45.06 0-70.917 50.225-46.779 86.779-15.202-10.009-25.221-27.219-25.221-46.779 0-30.93 25.07-56 56-56 0-47.879 45.957-82.42 91.92-69.21 40.37-55.407 122.24-57.318 165.18-3.899z" fill="#436786"/><g fill="#d6ecff"><circle cx="136" cy="432" r="8"/><circle cx="124" cy="420" r="4"/></g></svg>